<svg width="42" height="42" viewBox="0 0 42 42" fill="none" xmlns="http://www.w3.org/2000/svg">
<path d="M40.459 18.475L29.5121 12.9183C29.4207 12.8397 29.3268 12.7647 29.2342 12.6896C29.2178 12.6697 29.2025 12.6509 29.1861 12.631L23.5567 1.54105C22.5141 -0.513683 19.5798 -0.513683 18.5372 1.54105L16.0426 6.45622C15.7283 7.07545 15.0106 7.37217 14.3503 7.15755L9.02114 5.41595C6.83154 4.70055 4.75687 6.77522 5.4711 8.96599L7.20331 14.2705C7.4191 14.9296 7.12121 15.6486 6.50198 15.9629L1.53873 18.482C-0.516002 19.5246 -0.516002 22.459 1.53873 23.5016L6.38236 25.9598C7.00159 26.2741 7.29831 26.9918 7.08369 27.6521L5.35968 32.9355C4.64428 35.1251 6.71895 37.1998 8.90972 36.4856L14.2975 34.7252C14.9566 34.5094 15.6756 34.8073 15.9899 35.4265L18.5454 40.4602C19.588 42.5149 22.5223 42.5149 23.5649 40.4602L26.0935 35.4793C26.4078 34.8601 27.1255 34.5634 27.7858 34.778L32.9989 36.4809C35.1884 37.1963 37.2631 35.1216 36.5489 32.9308L34.8366 27.6861C34.6208 27.027 34.9187 26.3081 35.5379 25.9938L40.4637 23.4934C42.5137 22.4519 42.5137 19.5176 40.459 18.475Z" fill="#000F40"/>
<path d="M37.2843 6.32604L31.5411 23.9109C29.0677 31.4859 19.5083 34.0215 13.7323 28.5317C13.6596 28.4625 13.5868 28.3921 13.5153 28.3206C13.4438 28.249 13.3734 28.1763 13.3042 28.1036C7.81437 22.3276 10.3499 12.7682 17.925 10.2948L35.5098 4.55043C36.6052 4.19273 37.642 5.23065 37.2843 6.32604Z" fill="#FF0000"/>
<path d="M21.1009 32.2998C18.1736 32.2998 15.3413 31.1927 13.1669 29.1263C13.0895 29.0524 13.0121 28.9773 12.9347 28.8999C12.8573 28.8225 12.7834 28.7463 12.7096 28.6677C9.96522 25.7815 8.91323 21.7353 9.89603 17.8475C10.8952 13.8917 13.8014 10.7768 17.6693 9.51369L35.2541 3.77053C36.0563 3.509 36.9254 3.71658 37.5211 4.31353C38.1169 4.91048 38.3257 5.77952 38.0641 6.58054L32.3222 24.1654C31.0591 28.0332 27.9429 30.9394 23.9883 31.9386C23.029 32.1814 22.0591 32.2998 21.1009 32.2998ZM35.9543 5.29985C35.8957 5.29985 35.8323 5.30923 35.7643 5.33151L18.1795 11.0747C14.8499 12.1618 12.3483 14.844 11.4875 18.251C10.6431 21.5899 11.545 25.0626 13.8988 27.5383C13.9633 27.6063 14.0289 27.6732 14.0958 27.74C14.1626 27.8069 14.2295 27.8726 14.2975 27.9371C16.7733 30.2909 20.2459 31.1916 23.5849 30.3483C26.9906 29.4875 29.6728 26.9859 30.7612 23.6564L36.5043 6.07154C36.6052 5.7631 36.4375 5.55083 36.3613 5.47459C36.3014 5.41478 36.1607 5.29985 35.9543 5.29985Z" fill="white"/>
<path d="M21.0001 26.1603C23.8501 26.1603 26.1604 23.8499 26.1604 21C26.1604 18.1501 23.8501 15.8397 21.0001 15.8397C18.1502 15.8397 15.8398 18.1501 15.8398 21C15.8398 23.8499 18.1502 26.1603 21.0001 26.1603Z" fill="white"/>
</svg>
