<svg width="30" height="30" viewBox="0 0 30 30" fill="none" xmlns="http://www.w3.org/2000/svg">
<g clip-path="url(#clip0)">
<path d="M12.1716 1.272C12.9527 0.490953 14.219 0.490953 15 1.272C15.7811 2.05305 15.7811 3.31938 15 4.10043L13.2323 5.8682L8.98962 4.45398L12.1716 1.272Z" fill="#FF0000"/>
<path d="M27.7279 16.8284C28.5089 16.0473 28.5089 14.781 27.7279 14C26.9468 13.2189 25.6805 13.2189 24.8994 14L23.1317 15.7677L24.5459 20.0104L27.7279 16.8284Z" fill="#FF0000"/>
<path d="M5.01763 4.18332C5.78241 3.41855 6.89963 3.12463 7.94174 3.41405L17.3235 6.01958L12.5583 10.7848L4.42227 4.77868L5.01763 4.18332Z" stroke="#E5EBFF" stroke-width="2"/>
<path d="M24.8573 23.9417C25.6254 23.1736 25.9182 22.0503 25.623 21.0049L22.9865 11.6703L18.2866 16.3702L24.3054 24.4935L24.8573 23.9417Z" stroke="#E5EBFF" stroke-width="2"/>
<path d="M2.36501 15.3211C2.60143 15.0847 2.94037 14.9821 3.26823 15.0477L7.17177 15.8284C7.86973 15.968 8.20253 16.7714 7.80771 17.3637L5.80757 20.3639L0.857823 16.8283L2.36501 15.3211Z" stroke="#E5EBFF" stroke-width="2"/>
<path d="M13.6787 26.6349C13.9152 26.3984 14.0178 26.0595 13.9522 25.7316L13.1715 21.8281C13.0319 21.1301 12.2285 20.7973 11.6362 21.1922L8.63601 23.1923L12.1715 28.1421L13.6787 26.6349Z" stroke="#E5EBFF" stroke-width="2"/>
<path d="M21.2787 13.378C18.4021 16.2547 14.5511 19.3258 11.1945 21.4272C9.51091 22.4812 7.99707 23.2624 6.81969 23.6635C6.22795 23.8651 5.77544 23.9516 5.45789 23.9554C5.20815 23.9583 5.11898 23.9111 5.10079 23.8991C5.08878 23.8809 5.04158 23.7918 5.04452 23.542C5.04825 23.2245 5.13477 22.772 5.33639 22.1802C5.73755 21.0028 6.51874 19.489 7.57275 17.8054C9.67411 14.4488 12.7452 10.5978 15.6219 7.72116C18.5177 4.82534 20.5414 3.59547 21.9638 3.24585C22.6493 3.07736 23.183 3.11626 23.6229 3.26127C24.0715 3.40914 24.4885 3.68944 24.8995 4.10043C25.3105 4.51141 25.5908 4.92841 25.7386 5.37699C25.8836 5.81686 25.9225 6.3506 25.7541 7.03606C25.4044 8.45848 24.1746 10.4822 21.2787 13.378ZM5.09708 23.8964C5.0971 23.8964 5.09759 23.8967 5.09847 23.8975L5.09708 23.8964ZM5.10242 23.9015C5.1032 23.9023 5.10355 23.9028 5.10353 23.9028L5.10242 23.9015Z" stroke="#E5EBFF" stroke-width="2"/>
</g>
<defs>
<clipPath id="clip0">
<path d="M0 0H30V30H0V0Z" fill="white"/>
</clipPath>
</defs>
</svg>
