<svg width="30" height="30" viewBox="0 0 30 30" fill="none" xmlns="http://www.w3.org/2000/svg">
<path d="M15 1.35779C15.1207 1.46343 15.256 1.57953 15.4049 1.70426C16.103 2.2887 17.1079 3.0667 18.341 3.84549C20.5669 5.25129 23.6149 6.70969 26.9861 6.96181C26.8278 12.4757 25.3254 17.9149 23.1163 22.0267C21.9478 24.2016 20.6018 25.9677 19.1897 27.1783C17.7766 28.3899 16.3539 29 15 29C13.6461 29 12.2234 28.3899 10.8103 27.1783C9.39817 25.9677 8.05216 24.2016 6.8837 22.0267C4.67464 17.9149 3.17223 12.4757 3.01387 6.96181C6.38508 6.70969 9.43315 5.25129 11.659 3.84549C12.8921 3.06671 13.897 2.2887 14.5951 1.70426C14.744 1.57953 14.8793 1.46343 15 1.35779Z" stroke="#E5EBFF" stroke-width="2"/>
<path d="M12 18.7782L19.7782 11L21.8995 13.1213L14.1213 20.8995L12 18.7782Z" fill="#FF0000"/>
<path d="M11.1213 13.7072L14.6569 17.2427L12.5356 19.364L9.00002 15.8285L11.1213 13.7072Z" fill="#FF0000"/>
</svg>
