<svg width="30" height="30" viewBox="0 0 30 30" fill="none" xmlns="http://www.w3.org/2000/svg">
<mask id="path-2-inside-1" fill="white">
<path fill-rule="evenodd" clip-rule="evenodd" d="M11 2.15726C11 0.965838 11.9658 0 13.1573 0H16.8427C18.0342 0 19 0.965839 19 2.15726V3.04748C19 3.42825 19.2427 3.76509 19.5944 3.91098C19.9464 4.05695 20.3538 3.9893 20.6232 3.7199L21.253 3.09013C22.0953 2.24781 23.461 2.24781 24.3033 3.09013L26.9099 5.69667C27.7522 6.53899 27.7522 7.90466 26.9099 8.74698L26.2801 9.37673C26.0107 9.64614 25.943 10.0536 26.089 10.4055C26.2349 10.7573 26.5718 11 26.9525 11H27.8427C29.0342 11 30 11.9658 30 13.1573V16.8427C30 18.0342 29.0342 19 27.8427 19H26.9525C26.5718 19 26.2349 19.2427 26.089 19.5944C25.9431 19.9464 26.0107 20.3538 26.2801 20.6232L26.9099 21.253C27.7522 22.0953 27.7522 23.461 26.9099 24.3034L24.3034 26.9099C23.461 27.7522 22.0954 27.7522 21.253 26.9099L20.6233 26.2801C20.3539 26.0107 19.9464 25.943 19.5945 26.089C19.2427 26.2349 19 26.5718 19 26.9525V27.8427C19 29.0342 18.0342 30 16.8427 30H13.1573C11.9658 30 11 29.0342 11 27.8427V26.9525C11 26.5718 10.7573 26.2349 10.4055 26.089C10.0536 25.943 9.64614 26.0107 9.37673 26.2801L8.74697 26.9099C7.90464 27.7522 6.53896 27.7522 5.69663 26.9099L3.09012 24.3033C2.24779 23.461 2.24779 22.0953 3.09012 21.253L3.71989 20.6232C3.9893 20.3538 4.05695 19.9464 3.91098 19.5944C3.76509 19.2427 3.42825 19 3.04748 19H2.15726C0.965839 19 0 18.0342 0 16.8427V13.1573C0 11.9658 0.965838 11 2.15726 11H3.04747C3.42824 11 3.76509 10.7573 3.91098 10.4055C4.05696 10.0536 3.98931 9.64613 3.7199 9.37672L3.09015 8.74698C2.24783 7.90466 2.24783 6.53899 3.09015 5.69668L5.6967 3.09013C6.53902 2.24781 7.90469 2.24781 8.74701 3.09013L9.37678 3.71989C9.64618 3.9893 10.0536 4.05695 10.4056 3.91098C10.7573 3.76509 11 3.42825 11 3.04749V2.15726Z"/>
</mask>
<path d="M9.37678 3.71989L10.791 2.30568L9.37678 3.71989ZM3.09015 8.74698L1.67594 10.1612L3.09015 8.74698ZM3.7199 9.37672L2.30568 10.7909L3.7199 9.37672ZM3.71989 20.6232L2.30568 19.209L3.71989 20.6232ZM3.09012 21.253L1.67591 19.8388L3.09012 21.253ZM8.74697 26.9099L7.33276 25.4956L8.74697 26.9099ZM5.69663 26.9099L4.28242 28.3241L5.69663 26.9099ZM9.37673 26.2801L7.96252 24.8659L9.37673 26.2801ZM26.2801 9.37673L24.8659 7.96252L26.2801 9.37673ZM26.9099 5.69667L25.4956 7.11089L26.9099 5.69667ZM26.9099 8.74698L25.4956 7.33277L26.9099 8.74698ZM21.253 3.09013L19.8388 1.67592L21.253 3.09013ZM20.6232 3.7199L19.209 2.30568L20.6232 3.7199ZM16.8427 -2H13.1573V2H16.8427V-2ZM21 3.04748V2.15726H17V3.04748H21ZM19.8388 1.67592L19.209 2.30568L22.0374 5.13411L22.6672 4.50435L19.8388 1.67592ZM28.3241 4.28246L25.7175 1.67592L22.8891 4.50435L25.4956 7.11089L28.3241 4.28246ZM27.6943 10.7909L28.3241 10.1612L25.4956 7.33277L24.8659 7.96252L27.6943 10.7909ZM27.8427 9H26.9525V13H27.8427V9ZM32 16.8427V13.1573H28V16.8427H32ZM26.9525 21H27.8427V17H26.9525V21ZM28.3241 19.8388L27.6943 19.209L24.8659 22.0374L25.4957 22.6672L28.3241 19.8388ZM25.7176 28.3241L28.3241 25.7176L25.4957 22.8891L22.8892 25.4957L25.7176 28.3241ZM19.2091 27.6943L19.8388 28.3241L22.6673 25.4956L22.0375 24.8659L19.2091 27.6943ZM21 27.8427V26.9525H17V27.8427H21ZM13.1573 32H16.8427V28H13.1573V32ZM9 26.9525V27.8427H13V26.9525H9ZM10.1612 28.3241L10.7909 27.6943L7.96252 24.8659L7.33276 25.4956L10.1612 28.3241ZM1.67591 25.7176L4.28242 28.3241L7.11085 25.4956L4.50433 22.8891L1.67591 25.7176ZM2.30568 19.209L1.67591 19.8388L4.50433 22.6672L5.13411 22.0374L2.30568 19.209ZM2.15726 21H3.04748V17H2.15726V21ZM-2 13.1573V16.8427H2V13.1573H-2ZM3.04747 9H2.15726V13H3.04747V9ZM1.67594 10.1612L2.30568 10.7909L5.13411 7.96251L4.50436 7.33276L1.67594 10.1612ZM4.28248 1.67592L1.67594 4.28246L4.50436 7.11089L7.11091 4.50434L4.28248 1.67592ZM10.791 2.30568L10.1612 1.67592L7.3328 4.50434L7.96256 5.13411L10.791 2.30568ZM9 2.15726V3.04749H13V2.15726H9ZM11.1718 5.75836C12.2096 5.32789 13 4.30065 13 3.04749H9C9 2.55585 9.30489 2.20229 9.63928 2.06359L11.1718 5.75836ZM7.96256 5.13411C8.8442 6.01574 10.126 6.19214 11.1718 5.75836L9.63928 2.06359C9.98124 1.92175 10.4482 1.96285 10.791 2.30568L7.96256 5.13411ZM7.11091 4.50434C7.17218 4.44307 7.27153 4.44307 7.3328 4.50434L10.1612 1.67592C8.53786 0.0525488 5.90586 0.0525453 4.28248 1.67592L7.11091 4.50434ZM4.50436 7.33276C4.4431 7.27149 4.4431 7.17216 4.50436 7.11089L1.67594 4.28246C0.052572 5.90583 0.0525721 8.53782 1.67594 10.1612L4.50436 7.33276ZM5.75837 11.1718C6.19216 10.126 6.01576 8.84416 5.13411 7.96251L2.30568 10.7909C1.96286 10.4481 1.92177 9.98121 2.0636 9.63926L5.75837 11.1718ZM3.04747 13C4.30064 13 5.32789 12.2096 5.75837 11.1718L2.0636 9.63926C2.2023 9.30489 2.55584 9 3.04747 9V13ZM2 13.1573C2 13.0704 2.07041 13 2.15726 13V9C-0.138731 9 -2 10.8613 -2 13.1573H2ZM2.15726 17C2.07041 17 2 16.9296 2 16.8427H-2C-2 19.1387 -0.138731 21 2.15726 21V17ZM5.75836 18.8282C5.32789 17.7904 4.30064 17 3.04748 17V21C2.55585 21 2.20229 20.6951 2.06359 20.3607L5.75836 18.8282ZM5.13411 22.0374C6.01575 21.1558 6.19214 19.874 5.75836 18.8282L2.06359 20.3607C1.92175 20.0188 1.96285 19.5518 2.30568 19.209L5.13411 22.0374ZM4.50433 22.8891C4.44305 22.8279 4.44305 22.7285 4.50433 22.6672L1.67591 19.8388C0.0525301 21.4622 0.0525275 24.0942 1.67591 25.7176L4.50433 22.8891ZM7.33276 25.4956C7.27148 25.5569 7.17213 25.5569 7.11085 25.4956L4.28242 28.3241C5.9058 29.9475 8.53781 29.9475 10.1612 28.3241L7.33276 25.4956ZM11.1718 24.2416C10.126 23.8078 8.84416 23.9842 7.96252 24.8659L10.7909 27.6943C10.4481 28.0371 9.98121 28.0782 9.63926 27.9364L11.1718 24.2416ZM13 26.9525C13 25.6994 12.2096 24.6721 11.1718 24.2416L9.63926 27.9364C9.30489 27.7977 9 27.4442 9 26.9525H13ZM13.1573 28C13.0704 28 13 27.9296 13 27.8427H9C9 30.1387 10.8613 32 13.1573 32V28ZM17 27.8427C17 27.9296 16.9296 28 16.8427 28V32C19.1387 32 21 30.1387 21 27.8427H17ZM18.8282 24.2416C17.7904 24.6721 17 25.6994 17 26.9525H21C21 27.4442 20.6951 27.7977 20.3607 27.9364L18.8282 24.2416ZM22.0375 24.8659C21.1558 23.9842 19.874 23.8078 18.8282 24.2416L20.3607 27.9364C20.0188 28.0782 19.5519 28.0371 19.2091 27.6943L22.0375 24.8659ZM22.8892 25.4957C22.8279 25.5569 22.7285 25.5569 22.6673 25.4956L19.8388 28.3241C21.4622 29.9475 24.0942 29.9475 25.7176 28.3241L22.8892 25.4957ZM25.4957 22.6672C25.557 22.7285 25.557 22.8279 25.4957 22.8891L28.3241 25.7176C29.9475 24.0942 29.9475 21.4622 28.3241 19.8388L25.4957 22.6672ZM24.2416 18.8282C23.8079 19.874 23.9843 21.1558 24.8659 22.0374L27.6943 19.209C28.0372 19.5518 28.0782 20.0188 27.9364 20.3607L24.2416 18.8282ZM26.9525 17C25.6994 17 24.6721 17.7904 24.2416 18.8282L27.9364 20.3607C27.7977 20.6951 27.4441 21 26.9525 21V17ZM28 16.8427C28 16.9296 27.9296 17 27.8427 17V21C30.1387 21 32 19.1387 32 16.8427H28ZM27.8427 13C27.9296 13 28 13.0704 28 13.1573H32C32 10.8613 30.1387 9 27.8427 9V13ZM24.2416 11.1718C24.6721 12.2096 25.6994 13 26.9525 13V9C27.4442 9 27.7977 9.30489 27.9364 9.63926L24.2416 11.1718ZM24.8659 7.96252C23.9842 8.84416 23.8078 10.126 24.2416 11.1718L27.9364 9.63926C28.0782 9.98121 28.0371 10.4481 27.6943 10.7909L24.8659 7.96252ZM25.4956 7.11089C25.5569 7.17216 25.5569 7.2715 25.4956 7.33277L28.3241 10.1612C29.9474 8.53783 29.9474 5.90583 28.3241 4.28246L25.4956 7.11089ZM22.6672 4.50435C22.7285 4.44307 22.8278 4.44307 22.8891 4.50435L25.7175 1.67592C24.0942 0.0525471 21.4621 0.052549 19.8388 1.67592L22.6672 4.50435ZM18.8282 5.75836C19.874 6.19215 21.1558 6.01575 22.0374 5.13411L19.209 2.30568C19.5518 1.96285 20.0188 1.92175 20.3607 2.0636L18.8282 5.75836ZM17 3.04748C17 4.30064 17.7904 5.32789 18.8282 5.75836L20.3607 2.0636C20.6951 2.2023 21 2.55585 21 3.04748H17ZM13.1573 -2C10.8613 -2 9 -0.138731 9 2.15726H13C13 2.07041 13.0704 2 13.1573 2V-2ZM16.8427 2C16.9296 2 17 2.07041 17 2.15726H21C21 -0.138731 19.1387 -2 16.8427 -2V2Z" fill="#E5EBFF" mask="url(#path-2-inside-1)"/>
<circle cx="15" cy="15" r="5" stroke="#FF0000" stroke-width="2"/>
</svg>
