<svg width="30" height="30" viewBox="0 0 30 30" fill="none" xmlns="http://www.w3.org/2000/svg">
<g clip-path="url(#clip0)">
<path d="M1 11.1946C1 10.614 1.51875 10.0847 2.1833 10.0903C3.93486 10.1052 6.52406 10.0084 9.19378 9.48104C11.4168 9.04194 13.9061 7.45653 15.9957 5.85028C16.7424 5.27635 17.75 5.21675 18.6017 5.58744C19.4459 5.95487 20 6.67809 20 7.5626V20.4374C20 21.3219 19.4459 22.0451 18.6017 22.4126C17.75 22.7833 16.7424 22.7236 15.9957 22.1497C13.9061 20.5435 11.4168 18.9581 9.19378 18.519C6.52406 17.9916 3.93486 17.8948 2.1833 17.9097C1.51875 17.9153 1 17.386 1 16.8054L1 11.1946Z" stroke="#E5EBFF" stroke-width="2"/>
<path d="M19.0001 11H21.0001C22.6569 11 24.0001 12.3431 24.0001 14C24.0001 15.6569 22.6569 17 21.0001 17H19.0001V11Z" fill="#E5EBFF"/>
<path d="M7.41026 28.3846L3.5 19H8.33333L11.9231 27.6154C12.1975 28.2741 11.7136 29 11 29H8.33333C7.92963 29 7.56553 28.7573 7.41026 28.3846Z" stroke="#E5EBFF" stroke-width="2"/>
<path d="M25.833 9.43957C25.526 8.8155 25.97 8 26.6655 8C26.8806 8 27.0863 8.07961 27.2355 8.23451C27.9428 8.96862 30.0001 11.3332 30.0001 14C30.0001 16.6668 27.9428 19.0314 27.2355 19.7655C27.0863 19.9204 26.8806 20 26.6655 20C25.97 20 25.526 19.1845 25.833 18.5604C26.3819 17.4444 27.0001 15.7903 27.0001 14C27.0001 12.2097 26.3819 10.5556 25.833 9.43957Z" fill="#FF0000"/>
<rect x="7.00006" y="10" width="2" height="9" fill="#E5EBFF"/>
</g>
<defs>
<clipPath id="clip0">
<path d="M0 0H30V30H0V0Z" fill="white"/>
</clipPath>
</defs>
</svg>
