<svg width="30" height="30" viewBox="0 0 30 30" fill="none" xmlns="http://www.w3.org/2000/svg">
<mask id="path-2-inside-1" fill="white">
<path d="M4 25H26V29C26 29.5523 25.5523 30 25 30H5C4.44772 30 4 29.5523 4 29V25Z"/>
</mask>
<path d="M4 25H26V29C26 29.5523 25.5523 30 25 30H5C4.44772 30 4 29.5523 4 29V25Z" fill="#FF0000" stroke="#FF0000" stroke-width="4" mask="url(#path-2-inside-1)"/>
<path d="M17.985 17.5291C18.0841 18.0431 18.1995 18.5447 18.3443 19H18.3377H18.329H18.3203H18.3115H18.3028H18.2941H18.2854H18.2768H18.2681H18.2594H18.2507H18.2421H18.2334H18.2248H18.2162H18.2075H18.1989H18.1903H18.1817H18.1731H18.1645H18.1559H18.1473H18.1387H18.1301H18.1216H18.113H18.1044H18.0959H18.0873H18.0788H18.0702H18.0617H18.0531H18.0446H18.0361H18.0276H18.019H18.0105H18.002H17.9935H17.985H17.9765H17.968H17.9595H17.951H17.9425H17.934H17.9256H17.9171H17.9086H17.9001H17.8916H17.8832H17.8747H17.8662H17.8578H17.8493H17.8408H17.8324H17.8239H17.8154H17.807H17.7985H17.7901H17.7816H17.7731H17.7647H17.7562H17.7478H17.7393H17.7308H17.7224H17.7139H17.7055H17.697H17.6885H17.6801H17.6716H17.6632H17.6547H17.6462H17.6378H17.6293H17.6208H17.6123H17.6039H17.5954H17.5869H17.5784H17.5699H17.5615H17.553H17.5445H17.536H17.5275H17.519H17.5105H17.502H17.4935H17.4849H17.4764H17.4679H17.4594H17.4509H17.4423H17.4338H17.4252H17.4167H17.4081H17.3996H17.391H17.3825H17.3739H17.3653H17.3567H17.3481H17.3395H17.3309H17.3223H17.3137H17.3051H17.2965H17.2879H17.2792H17.2706H17.2619H17.2533H17.2446H17.236H17.2273H17.2186H17.2099H17.2012H17.1925H17.1838H17.1751H17.1663H17.1576H17.1489H17.1401H17.1313H17.1226H17.1138H17.105H17.0962H17.0874H17.0786H17.0698H17.0609H17.0521H17.0432H17.0344H17.0255H17.0166H17.0077H16.9988H16.9899H16.981H16.9721H16.9631H16.9542H16.9452H16.9362H16.9272H16.9182H16.9092H16.9002H16.8912H16.8821H16.8731H16.864H16.8549H16.8458H16.8367H16.8276H16.8185H16.8093H16.8002H16.791H16.7818H16.7726H16.7634H16.7542H16.745H16.7357H16.7265H16.7172H16.7079H16.6986H16.6893H16.68H16.6706H16.6613H16.6519H16.6425H16.6331H16.6237H16.6142H16.6048H16.5953H16.5858H16.5764H16.5668H16.5573H16.5478H16.5382H16.5286H16.5191H16.5094H16.4998H16.4902H16.4805H16.4708H16.4612H16.4514H16.4417H16.432H16.4222H16.4124H16.4026H16.3928H16.383H16.3732H16.3633H16.3534H16.3435H16.3336H16.3236H16.3137H16.3037H16.2937H16.2837H16.2736H16.2636H16.2535H16.2434H16.2333H16.2232H16.213H16.2029H16.1927H16.1824H16.1722H16.162H16.1517H16.1414H16.1311H16.1207H16.1104H16.1H16.0896H16.0792H16.0687H16.0583H16.0478H16.0373H16.0267H16.0162H16.0056H15.995H15.9844H15.9737H15.9631H15.9524H15.9417H15.9309H15.9202H15.9094H15.8986H15.8878H15.8769H15.866H15.8551H15.8442H15.8333H15.8223H15.8113H15.8003H15.7892H15.7782H15.7671H15.756H15.7448H15.7336H15.7224H15.7112H15.7H15.6887H15.6774H15.6661H15.6547H15.6434H15.632H15.6205H15.6091H15.5976H15.5861H15.5746H15.563H15.5514H15.5398H15.5281H15.5165H15.5048H15.4931H15.4813H15.4695H15.4577H15.4459H15.434H15.4221H15.4102H15.3982H15.3863H15.3742H15.3622H15.3501H15.338H15.3259H15.3138H15.3016H15.2894H15.2771H15.2649H15.2525H15.2402H15.2279H15.2155H15.203H15.1906H15.1781H15.1656H15.153H15.1404H15.1278H15.1152H15.1025H15.0898H15.0771H15.0643H15.0515H15.0387H15.0258H15.0129H15H14.9871H14.9742H14.9613H14.9484H14.9355H14.9227H14.9099H14.8971H14.8843H14.8716H14.8589H14.8462H14.8335H14.8208H14.8082H14.7955H14.7829H14.7704H14.7578H14.7453H14.7327H14.7202H14.7077H14.6953H14.6828H14.6704H14.658H14.6456H14.6333H14.6209H14.6086H14.5963H14.584H14.5717H14.5595H14.5472H14.535H14.5228H14.5107H14.4985H14.4864H14.4743H14.4622H14.4501H14.438H14.426H14.414H14.402H14.39H14.378H14.3661H14.3541H14.3422H14.3303H14.3185H14.3066H14.2948H14.283H14.2712H14.2594H14.2476H14.2359H14.2241H14.2124H14.2007H14.189H14.1774H14.1657H14.1541H14.1425H14.1309H14.1194H14.1078H14.0963H14.0848H14.0733H14.0618H14.0503H14.0389H14.0274H14.016H14.0046H13.9932H13.9819H13.9705H13.9592H13.9479H13.9366H13.9253H13.914H13.9028H13.8915H13.8803H13.8691H13.8579H13.8468H13.8356H13.8245H13.8134H13.8023H13.7912H13.7801H13.7691H13.758H13.747H13.736H13.725H13.714H13.7031H13.6921H13.6812H13.6703H13.6594H13.6485H13.6376H13.6268H13.6159H13.6051H13.5943H13.5835H13.5727H13.562H13.5512H13.5405H13.5298H13.5191H13.5084H13.4977H13.487H13.4764H13.4658H13.4552H13.4446H13.434H13.4234H13.4128H13.4023H13.3918H13.3812H13.3707H13.3603H13.3498H13.3393H13.3289H13.3184H13.308H13.2976H13.2872H13.2768H13.2665H13.2561H13.2458H13.2355H13.2251H13.2148H13.2046H13.1943H13.184H13.1738H13.1636H13.1533H13.1431H13.1329H13.1228H13.1126H13.1024H13.0923H13.0822H13.072H13.0619H13.0518H13.0418H13.0317H13.0216H13.0116H13.0016H12.9915H12.9815H12.9715H12.9615H12.9516H12.9416H12.9317H12.9217H12.9118H12.9019H12.892H12.8821H12.8722H12.8624H12.8525H12.8427H12.8328H12.823H12.8132H12.8034H12.7936H12.7838H12.7741H12.7643H12.7546H12.7448H12.7351H12.7254H12.7157H12.706H12.6963H12.6867H12.677H12.6674H12.6577H12.6481H12.6385H12.6289H12.6193H12.6097H12.6001H12.5906H12.581H12.5715H12.5619H12.5524H12.5429H12.5334H12.5239H12.5144H12.5049H12.4955H12.486H12.4766H12.4671H12.4577H12.4483H12.4389H12.4295H12.4201H12.4107H12.4013H12.3919H12.3826H12.3732H12.3639H12.3546H12.3453H12.3359H12.3266H12.3173H12.3081H12.2988H12.2895H12.2803H12.271H12.2618H12.2525H12.2433H12.2341H12.2249H12.2157H12.2065H12.1973H12.1881H12.1789H12.1698H12.1606H12.1515H12.1423H12.1332H12.1241H12.1149H12.1058H12.0967H12.0876H12.0785H12.0695H12.0604H12.0513H12.0423H12.0332H12.0242H12.0151H12.0061H11.9971H11.9881H11.979H11.97H11.961H11.9521H11.9431H11.9341H11.9251H11.9162H11.9072H11.8982H11.8893H11.8804H11.8714H11.8625H11.8536H11.8447H11.8357H11.8268H11.8179H11.8091H11.8002H11.7913H11.7824H11.7735H11.7647H11.7558H11.747H11.7381H11.7293H11.7204H11.7116H11.7028H11.694H11.6851H11.6763H11.6675H11.6623C11.8042 18.553 11.9175 18.061 12.0149 17.5568C12.1472 16.8725 12.2673 16.0565 12.387 15.2432C12.4758 14.6406 12.5643 14.0395 12.6573 13.4946C12.8931 12.1136 13.1799 10.9173 13.6123 10.0821C14.0285 9.27828 14.4655 9 15 9C15.5377 9 15.974 9.27811 16.3887 10.0749C16.8204 10.9045 17.107 12.094 17.3428 13.4708C17.4362 14.0163 17.5252 14.6204 17.6146 15.2265C17.7339 16.0355 17.8537 16.848 17.985 17.5291Z" stroke="#E5EBFF" stroke-width="2"/>
<mask id="path-4-inside-2" fill="white">
<path d="M2 20C2 18.8954 2.89543 18 4 18H26C27.1046 18 28 18.8954 28 20V26C28 26.5523 27.5523 27 27 27H3C2.44772 27 2 26.5523 2 26V20Z"/>
</mask>
<path d="M2 20C2 18.8954 2.89543 18 4 18H26C27.1046 18 28 18.8954 28 20V26C28 26.5523 27.5523 27 27 27H3C2.44772 27 2 26.5523 2 26V20Z" stroke="#E5EBFF" stroke-width="4" mask="url(#path-4-inside-2)"/>
<circle cx="15" cy="5" r="4" stroke="#E5EBFF" stroke-width="2"/>
</svg>
