<svg width="220" height="220" viewBox="0 0 220 220" fill="none" xmlns="http://www.w3.org/2000/svg">
<path d="M0 0H220V220H0V0Z" fill="#000F40"/>
<path d="M110 185C128.394 185 146.146 178.241 159.881 166.007C173.617 153.774 182.378 136.92 184.5 118.649C186.621 100.378 181.954 81.9649 171.386 66.9101C160.819 51.8553 145.087 41.2088 127.183 36.9947C109.278 32.7807 90.4498 35.293 74.2768 44.0541C58.1038 52.8151 45.7141 67.2138 39.4635 84.5127C33.2128 101.812 33.537 120.804 40.3745 137.88C47.212 154.955 60.0859 168.923 76.5485 177.127" stroke="#333F66" stroke-width="2"/>
<path d="M168.936 40.6637C185.75 54.9557 196.798 74.8705 200.023 96.701C203.248 118.532 198.43 140.79 186.467 159.333C174.504 177.877 156.21 191.441 134.991 197.501C113.772 203.561 91.0736 201.705 71.1216 192.277C51.1695 182.849 35.3231 166.492 26.5323 146.251C17.7414 126.01 16.6051 103.265 23.3349 82.2484C30.0647 61.2321 44.202 43.3774 63.1151 32.0078C82.0282 20.6383 104.428 16.5287 126.146 20.444" stroke="#333F66" stroke-width="2"/>
<path d="M43.6926 24.7516C64.7572 8.36721 91.1422 0.36189 117.76 2.27929C144.377 4.19668 169.342 15.901 187.841 35.1354C206.34 54.3698 217.063 79.7721 217.941 106.444C218.82 133.116 209.793 159.169 192.6 179.579C175.407 199.99 151.266 213.312 124.832 216.977C98.3988 220.642 71.5442 214.39 49.4469 199.428C27.3495 184.465 11.5743 161.851 5.16315 135.946C-1.24805 110.041 2.15877 82.6797 14.7267 59.1379" stroke="#333F66" stroke-width="2"/>
<circle cx="110" cy="110" r="58" fill="#192753" stroke="#FFCCCC" stroke-width="4"/>
<path d="M114.427 68.1282C116.42 64.5417 107.304 57.3867 105.344 54.8787C103.385 52.3708 96.0216 53.6213 90.271 54.8787C80.9677 56.9131 76.4197 61.2355 69.7165 67.9999C62.7791 75.0006 56.5 89.4999 56.5 89.4999L58.7542 93.247C60.6601 95.153 61.775 97.5337 63.5502 99.4134C65.8422 101.84 65.4965 103.295 66.9759 105.884C67.8278 107.375 71.4029 107.345 72.4571 108.663C73.482 109.944 77.1195 111.831 78.6234 112.583C82.3001 114.422 87.6858 116.721 89.4336 120.653C90.3896 122.804 88.7563 125.737 89.9284 127.847C91.1776 130.096 91.8966 132.344 93.6967 134.356C95.0165 135.831 98.4927 138.863 98.4927 140.865C98.4927 144.126 95.6427 147.28 97.465 150.114C100.499 154.834 100.88 152.12 102.756 148.744C106.46 142.077 117.257 140.737 114.403 131.463C113.663 129.058 112.878 125.452 114.936 123.394C116.786 121.543 119.246 122.218 121.445 120.996C126.416 118.234 116.214 117.227 114.556 117.227C112.492 117.227 108.208 117.489 107.438 114.791C106.456 111.355 103.474 108.623 99.4824 109.044C94.9767 109.518 95.067 109.178 95.067 104.895C95.067 102.417 92.3534 101.076 90.271 102.002C88.5803 102.753 85.3492 104.487 83.6859 104.856C81.065 105.439 72.7803 105.169 71.81 101.773C71.1392 99.4256 72.831 97.3526 73.6752 95.3025C73.8125 94.9688 68.2719 95.5561 67.6991 93.5515C67.1151 91.5073 69.4839 88.942 69.7165 87.0807C69.9968 84.8382 74.2642 85.0253 75.8829 85.0253C79.3651 85.0253 79.4436 88.6562 82.3086 88.5718C85.6536 88.4733 87.0024 84.4849 89.0492 83.2809C91.3992 81.8986 93.3777 79.2197 95.5962 77.952C98.3916 76.3546 99.0638 74.5466 102.41 73.8031C105.233 73.1756 105.897 69.6908 108.604 69.8411C111.203 69.9855 112.8 71.0568 114.427 68.1282Z" fill="white"/>
<path d="M127.954 68.4295C122.148 65.8489 119.757 60.7342 127.269 57.6194H135.5C135.5 57.6194 150.754 66.1935 157 74.9999C162.589 82.88 164.183 88.5545 166 98.0431C168.201 109.54 169.85 117.346 165 128C161.82 134.985 159.389 140.494 156.619 143.263C153.85 146.032 146.2 145.245 142.685 144.633C137.613 143.751 140.972 141.67 140.972 138.809C140.972 136.549 140.393 134.22 140.287 132.301C140.116 129.218 142.034 128.221 142.342 125.449C142.991 119.606 159.5 114 162 107.5C163.923 102.5 133.654 112.218 132.103 105.237C131.556 102.776 130.695 100.626 130.695 98.0431C130.695 96.0101 132.711 94.9031 133.588 93.2471C135.887 88.9043 133.435 84.0853 133.435 79.2015C133.435 76.9636 131.722 74.1001 130.162 72.5404C129.189 71.5678 129.307 71.1911 129.857 69.952C130.617 68.242 128.855 68.8298 127.954 68.4295Z" fill="white"/>
<circle cx="110" cy="110" r="58" stroke="#FFCCCC" stroke-width="4"/>
<circle cx="36" cy="109" r="7" fill="#FF8080" stroke="#FF8080" stroke-width="2"/>
<circle cx="194" cy="75" r="5" fill="#FF8080" stroke="#FF8080" stroke-width="2"/>
<circle cx="180" cy="194" r="9" fill="#FF8080" stroke="#FF8080" stroke-width="2"/>
<path fill-rule="evenodd" clip-rule="evenodd" d="M184 147C184 146.448 183.552 146 183 146C182.448 146 182 146.448 182 147V149H180C179.448 149 179 149.448 179 150C179 150.552 179.448 151 180 151H182V153C182 153.552 182.448 154 183 154C183.552 154 184 153.552 184 153V151H186C186.552 151 187 150.552 187 150C187 149.448 186.552 149 186 149H184V147Z" fill="#FFCCCC"/>
<path fill-rule="evenodd" clip-rule="evenodd" d="M102.088 8.74239C101.946 8.20892 101.397 7.89234 100.864 8.03528C100.33 8.17822 100.014 8.72656 100.157 9.26003L100.674 11.1919L98.7424 11.7095C98.2089 11.8525 97.8923 12.4008 98.0353 12.9343C98.1782 13.4677 98.7266 13.7843 99.26 13.6414L101.192 13.1237L101.71 15.0556C101.852 15.589 102.401 15.9056 102.934 15.7627C103.468 15.6197 103.784 15.0714 103.641 14.5379L103.124 12.6061L105.056 12.0885C105.589 11.9455 105.906 11.3972 105.763 10.8637C105.62 10.3302 105.071 10.0137 104.538 10.1566L102.606 10.6742L102.088 8.74239Z" fill="#FFCCCC"/>
<path fill-rule="evenodd" clip-rule="evenodd" d="M138.088 202.742C137.946 202.209 137.397 201.892 136.864 202.035C136.33 202.178 136.014 202.727 136.157 203.26L136.674 205.192L134.742 205.71C134.209 205.852 133.892 206.401 134.035 206.934C134.178 207.468 134.727 207.784 135.26 207.641L137.192 207.124L137.71 209.056C137.852 209.589 138.401 209.906 138.934 209.763C139.468 209.62 139.784 209.071 139.641 208.538L139.124 206.606L141.056 206.088C141.589 205.946 141.906 205.397 141.763 204.864C141.62 204.33 141.071 204.014 140.538 204.157L138.606 204.674L138.088 202.742Z" fill="#FFCCCC"/>
<path fill-rule="evenodd" clip-rule="evenodd" d="M200.909 17.2529C200.658 16.7608 200.056 16.5651 199.564 16.8159C199.072 17.0666 198.876 17.6688 199.127 18.1609L200.035 19.9429L198.253 20.8509C197.761 21.1016 197.565 21.7038 197.816 22.1959C198.067 22.688 198.669 22.8836 199.161 22.6329L200.943 21.7249L201.851 23.5069C202.102 23.999 202.704 24.1947 203.196 23.9439C203.688 23.6932 203.884 23.091 203.633 22.5989L202.725 20.8169L204.507 19.9089C204.999 19.6582 205.195 19.056 204.944 18.5639C204.693 18.0718 204.091 17.8762 203.599 18.1269L201.817 19.0349L200.909 17.2529Z" fill="#FFCCCC"/>
<path fill-rule="evenodd" clip-rule="evenodd" d="M9.24264 123.828C8.85212 123.438 8.21895 123.438 7.82843 123.828C7.4379 124.219 7.4379 124.852 7.82843 125.243L9.24264 126.657L7.82843 128.071C7.4379 128.461 7.4379 129.095 7.82843 129.485C8.21895 129.876 8.85212 129.876 9.24264 129.485L10.6569 128.071L12.0711 129.485C12.4616 129.876 13.0948 129.876 13.4853 129.485C13.8758 129.095 13.8758 128.461 13.4853 128.071L12.0711 126.657L13.4853 125.243C13.8758 124.852 13.8758 124.219 13.4853 123.828C13.0948 123.438 12.4616 123.438 12.0711 123.828L10.6569 125.243L9.24264 123.828Z" fill="#FFCCCC"/>
<path fill-rule="evenodd" clip-rule="evenodd" d="M19.4726 204.328C19.0094 204.629 18.8778 205.249 19.1786 205.712C19.4794 206.175 20.0987 206.307 20.5619 206.006L22.2392 204.916L23.3285 206.594C23.6293 207.057 24.2486 207.189 24.7118 206.888C25.175 206.587 25.3066 205.968 25.0058 205.505L23.9166 203.827L25.5939 202.738C26.0571 202.437 26.1887 201.818 25.8879 201.355C25.5871 200.891 24.9678 200.76 24.5046 201.061L22.8273 202.15L21.738 200.473C21.4372 200.009 20.8179 199.878 20.3547 200.178C19.8915 200.479 19.7599 201.099 20.0607 201.562L21.1499 203.239L19.4726 204.328Z" fill="#FFCCCC"/>
<path fill-rule="evenodd" clip-rule="evenodd" d="M206.162 192.584C205.992 193.11 206.279 193.674 206.804 193.844C207.329 194.015 207.894 193.728 208.064 193.202L208.682 191.3L210.584 191.918C211.11 192.089 211.674 191.802 211.845 191.276C212.015 190.751 211.728 190.187 211.202 190.016L209.3 189.398L209.918 187.496C210.089 186.971 209.802 186.407 209.276 186.236C208.751 186.065 208.187 186.353 208.016 186.878L207.398 188.78L205.496 188.162C204.971 187.991 204.407 188.279 204.236 188.804C204.065 189.329 204.353 189.894 204.878 190.064L206.78 190.682L206.162 192.584Z" fill="#FFCCCC"/>
<path fill-rule="evenodd" clip-rule="evenodd" d="M12.0989 14.5539C11.9936 14.0118 11.4686 13.6578 10.9265 13.7631C10.3844 13.8685 10.0303 14.3934 10.1357 14.9356L10.5173 16.8988L8.55405 17.2804C8.01192 17.3858 7.65786 17.9107 7.76324 18.4529C7.86862 18.995 8.39353 19.3491 8.93567 19.2437L10.8989 18.8621L11.2805 20.8253C11.3859 21.3675 11.9108 21.7215 12.453 21.6161C12.9951 21.5108 13.3492 20.9859 13.2438 20.4437L12.8622 18.4805L14.8254 18.0988C15.3676 17.9935 15.7216 17.4685 15.6163 16.9264C15.5109 16.3843 14.986 16.0302 14.4438 16.1356L12.4806 16.5172L12.0989 14.5539Z" fill="#FFCCCC"/>
<path fill-rule="evenodd" clip-rule="evenodd" d="M207.099 114.148C206.561 114.024 206.024 114.359 205.9 114.897C205.776 115.436 206.111 115.973 206.649 116.097L208.598 116.547L208.148 118.495C208.024 119.034 208.359 119.57 208.897 119.695C209.436 119.819 209.973 119.483 210.097 118.945L210.547 116.997L212.495 117.446C213.034 117.571 213.571 117.235 213.695 116.697C213.819 116.159 213.483 115.622 212.945 115.498L210.997 115.048L211.447 113.099C211.571 112.561 211.235 112.024 210.697 111.9C210.159 111.776 209.622 112.111 209.498 112.649L209.048 114.598L207.099 114.148Z" fill="#FFCCCC"/>
<rect x="140.433" y="32.6978" width="2" height="18" transform="rotate(-61 140.433 32.6978)" fill="#FFCCCC"/>
<rect x="147.221" y="20.4531" width="2" height="18" transform="rotate(-61 147.221 20.4531)" fill="#FFCCCC"/>
<rect x="146.451" y="28.0298" width="2" height="18" transform="rotate(-61 146.451 28.0298)" fill="#FFCCCC"/>
<circle cx="143.437" cy="25.216" r="8" transform="rotate(-61 143.437 25.216)" fill="#FF8080"/>
<rect x="21.9799" y="30.1279" width="2" height="18" transform="rotate(40 21.9799 30.1279)" fill="#FFCCCC"/>
<rect x="35.8043" y="41.8145" width="2" height="18" transform="rotate(40 35.8043 41.8145)" fill="#FFCCCC"/>
<rect x="26.9815" y="38.3274" width="2" height="18" transform="rotate(40 26.9815 38.3274)" fill="#FFCCCC"/>
<circle cx="30.2832" cy="35.7897" r="10" transform="rotate(40 30.2832 35.7897)" fill="#FF8080"/>
<rect x="99.8248" y="177.574" width="2" height="15" transform="rotate(105 99.8248 177.574)" fill="#FFCCCC"/>
<rect x="97.2366" y="187.233" width="2" height="15" transform="rotate(105 97.2366 187.233)" fill="#FFCCCC"/>
<rect x="96.5989" y="181.886" width="2" height="15" transform="rotate(105 96.5989 181.886)" fill="#FFCCCC"/>
<circle cx="98.2719" cy="183.37" r="6" transform="rotate(105 98.2719 183.37)" fill="#FF8080"/>
<path d="M90 73C90 76.0504 85.6421 83.0029 83.8033 85.8008C83.4191 86.3854 82.5809 86.3854 82.1967 85.8008C80.3579 83.0029 76 76.0504 76 73C76 69.134 79.134 66 83 66C86.866 66 90 69.134 90 73Z" fill="#FF0000"/>
<circle cx="83" cy="73" r="4" fill="white"/>
<path d="M123 108C123 111.05 118.642 118.003 116.803 120.801C116.419 121.385 115.581 121.385 115.197 120.801C113.358 118.003 109 111.05 109 108C109 104.134 112.134 101 116 101C119.866 101 123 104.134 123 108Z" fill="#FF0000"/>
<circle cx="116" cy="108" r="4" fill="white"/>
<path d="M107 136C107 139.05 102.642 146.003 100.803 148.801C100.419 149.385 99.5809 149.385 99.1967 148.801C97.3579 146.003 93 139.05 93 136C93 132.134 96.134 129 100 129C103.866 129 107 132.134 107 136Z" fill="#FF0000"/>
<circle cx="100" cy="136" r="4" fill="white"/>
<path d="M149 80C149 83.0504 144.642 90.0029 142.803 92.8008C142.419 93.3854 141.581 93.3854 141.197 92.8008C139.358 90.0029 135 83.0504 135 80C135 76.134 138.134 73 142 73C145.866 73 149 76.134 149 80Z" fill="#FF0000"/>
<circle cx="142" cy="80" r="4" fill="white"/>
<path d="M156 124C156 127.05 151.642 134.003 149.803 136.801C149.419 137.385 148.581 137.385 148.197 136.801C146.358 134.003 142 127.05 142 124C142 120.134 145.134 117 149 117C152.866 117 156 120.134 156 124Z" fill="#FF0000"/>
<circle cx="149" cy="124" r="4" fill="white"/>
</svg>
