<svg width="220" height="220" viewBox="0 0 220 220" fill="none" xmlns="http://www.w3.org/2000/svg">
<path d="M0 0H220V220H0V0Z" fill="#000F40"/>
<rect x="15" y="51" width="157" height="156" stroke="#333F66" stroke-width="2"/>
<rect x="23" y="37" width="161" height="107" stroke="#333F66" stroke-width="2"/>
<rect x="155" y="9" width="43" height="124" stroke="#333F66" stroke-width="2"/>
<rect x="1" y="8" width="68" height="136" stroke="#333F66" stroke-width="2"/>
<rect x="81" y="76" width="132" height="143" stroke="#333F66" stroke-width="2"/>
<rect x="47" y="95" width="172" height="97" stroke="#333F66" stroke-width="2"/>
<rect x="22" y="128.87" width="42" height="28" transform="rotate(-15 22 128.87)" fill="#FF8080"/>
<path d="M22 128.87L62.5689 118L46.9432 140.822L22 128.87Z" fill="#FFCCCC"/>
<rect x="160" y="109" width="38" height="25.3333" fill="#FF8080"/>
<path d="M160 109H198L179 125.286L160 109Z" fill="#FFCCCC"/>
<rect x="156.721" y="36" width="38" height="25.3333" transform="rotate(10.7405 156.721 36)" fill="#FF8080"/>
<path d="M156.721 36L194.055 43.0817L172.353 55.5413L156.721 36Z" fill="#FFCCCC"/>
<rect x="104.927" y="155" width="34.3353" height="24" transform="rotate(29.798 104.927 155)" fill="#FF8080"/>
<path d="M104.927 155L134.722 172.063L112.157 176.92L104.927 155Z" fill="#FFCCCC"/>
<rect x="35" y="50" width="28" height="18.6667" transform="rotate(-30 35 50)" fill="#FF8080"/>
<path d="M35 50L59.2487 36L53.1244 53.3923L35 50Z" fill="#FFCCCC"/>
<rect x="99.2244" width="34.4169" height="22.9446" transform="rotate(45 99.2244 0)" fill="#FF8080"/>
<path d="M99.2244 0L123.561 24.3365L100.963 22.5981L99.2244 0Z" fill="#FFCCCC"/>
<rect x="21.9678" y="189.981" width="26.7544" height="17.8363" transform="rotate(-3.0149 21.9678 189.981)" fill="#FF8080"/>
<path d="M21.9678 189.981L48.6852 188.574L35.9295 200.728L21.9678 189.981Z" fill="#FFCCCC"/>
<rect x="191.766" y="8.40234" width="19.1434" height="12.7623" transform="rotate(11.8229 191.766 8.40234)" fill="#FF8080"/>
<path d="M191.766 8.40234L210.504 12.3246L199.454 18.3937L191.766 8.40234Z" fill="#FFCCCC"/>
<rect x="15.257" y="19.6001" width="19.1434" height="12.7623" transform="rotate(-40.6467 15.257 19.6001)" fill="#FF8080"/>
<path d="M15.257 19.6001L29.7818 7.1302L27.8636 19.5901L15.257 19.6001Z" fill="#FFCCCC"/>
<rect x="160" y="190.909" width="40.3455" height="26.897" transform="rotate(-17.1676 160 190.909)" fill="#FF8080"/>
<path d="M160 190.909L198.548 179L184.378 201.475L160 190.909Z" fill="#FFCCCC"/>
<rect x="36" y="51" width="148" height="118" stroke="#E5E7EC" stroke-width="2"/>
<rect x="37" y="52" width="146" height="116" fill="white"/>
<rect x="139" y="95" width="11" height="4" stroke="#E5E7EC" stroke-width="2"/>
<rect x="163" y="94" width="2" height="6" rx="1" fill="#FFCCCC"/>
<rect x="167" y="96" width="2" height="4" rx="1" fill="#FFCCCC"/>
<rect x="171" y="98" width="2" height="2" rx="1" fill="#FFCCCC"/>
<rect x="102" y="94" width="24" height="2" rx="1" fill="#E5E7EC"/>
<rect x="102" y="98" width="17" height="2" rx="1" fill="#E5E7EC"/>
<rect x="77" y="94" width="13" height="2" rx="1" fill="#E5E7EC"/>
<rect x="77" y="98" width="9" height="2" rx="1" fill="#E5E7EC"/>
<circle cx="71" cy="97" r="3" fill="#FF8080"/>
<rect x="139" y="105" width="11" height="4" stroke="#E5E7EC" stroke-width="2"/>
<rect x="163" y="104" width="2" height="6" rx="1" fill="#FFCCCC"/>
<rect x="167" y="106" width="2" height="4" rx="1" fill="#FFCCCC"/>
<rect x="171" y="108" width="2" height="2" rx="1" fill="#FFCCCC"/>
<rect x="102" y="104" width="24" height="2" rx="1" fill="#E5E7EC"/>
<rect x="102" y="108" width="17" height="2" rx="1" fill="#E5E7EC"/>
<rect x="77" y="104" width="13" height="2" rx="1" fill="#E5E7EC"/>
<rect x="77" y="108" width="9" height="2" rx="1" fill="#E5E7EC"/>
<circle cx="71" cy="107" r="3" fill="#FF8080"/>
<rect x="139" y="115" width="11" height="4" stroke="#E5E7EC" stroke-width="2"/>
<rect x="163" y="114" width="2" height="6" rx="1" fill="#FFCCCC"/>
<rect x="167" y="116" width="2" height="4" rx="1" fill="#FFCCCC"/>
<rect x="171" y="118" width="2" height="2" rx="1" fill="#FFCCCC"/>
<rect x="102" y="114" width="24" height="2" rx="1" fill="#E5E7EC"/>
<rect x="102" y="118" width="17" height="2" rx="1" fill="#E5E7EC"/>
<rect x="77" y="114" width="13" height="2" rx="1" fill="#E5E7EC"/>
<rect x="77" y="118" width="9" height="2" rx="1" fill="#E5E7EC"/>
<circle cx="71" cy="117" r="3" fill="#FF8080"/>
<rect x="139" y="125" width="11" height="4" stroke="#E5E7EC" stroke-width="2"/>
<rect x="163" y="124" width="2" height="6" rx="1" fill="#FFCCCC"/>
<rect x="167" y="126" width="2" height="4" rx="1" fill="#FFCCCC"/>
<rect x="171" y="128" width="2" height="2" rx="1" fill="#FFCCCC"/>
<rect x="102" y="124" width="24" height="2" rx="1" fill="#E5E7EC"/>
<rect x="102" y="128" width="17" height="2" rx="1" fill="#E5E7EC"/>
<rect x="77" y="124" width="13" height="2" rx="1" fill="#E5E7EC"/>
<rect x="77" y="128" width="9" height="2" rx="1" fill="#E5E7EC"/>
<circle cx="71" cy="127" r="3" fill="#FF8080"/>
<rect x="139" y="135" width="11" height="4" stroke="#E5E7EC" stroke-width="2"/>
<rect x="163" y="134" width="2" height="6" rx="1" fill="#E5E7EC"/>
<rect x="167" y="136" width="2" height="4" rx="1" fill="#E5E7EC"/>
<rect x="171" y="138" width="2" height="2" rx="1" fill="#E5E7EC"/>
<rect x="102" y="134" width="24" height="2" rx="1" fill="#E5E7EC"/>
<rect x="102" y="138" width="17" height="2" rx="1" fill="#E5E7EC"/>
<rect x="77" y="134" width="13" height="2" rx="1" fill="#E5E7EC"/>
<rect x="77" y="138" width="9" height="2" rx="1" fill="#E5E7EC"/>
<circle cx="71" cy="137" r="3" fill="#E5E7EC"/>
<rect x="139" y="145" width="11" height="4" stroke="#E5E7EC" stroke-width="2"/>
<rect x="163" y="144" width="2" height="6" rx="1" fill="#E5E7EC"/>
<rect x="167" y="146" width="2" height="4" rx="1" fill="#E5E7EC"/>
<rect x="171" y="148" width="2" height="2" rx="1" fill="#E5E7EC"/>
<rect x="102" y="144" width="24" height="2" rx="1" fill="#E5E7EC"/>
<rect x="102" y="148" width="17" height="2" rx="1" fill="#E5E7EC"/>
<rect x="77" y="144" width="13" height="2" rx="1" fill="#E5E7EC"/>
<rect x="77" y="148" width="9" height="2" rx="1" fill="#E5E7EC"/>
<circle cx="71" cy="147" r="3" fill="#E5E7EC"/>
<rect x="139" y="155" width="11" height="4" stroke="#E5E7EC" stroke-width="2"/>
<rect x="163" y="154" width="2" height="6" rx="1" fill="#E5E7EC"/>
<rect x="167" y="156" width="2" height="4" rx="1" fill="#E5E7EC"/>
<rect x="171" y="158" width="2" height="2" rx="1" fill="#E5E7EC"/>
<rect x="102" y="154" width="24" height="2" rx="1" fill="#E5E7EC"/>
<rect x="102" y="158" width="17" height="2" rx="1" fill="#E5E7EC"/>
<rect x="77" y="154" width="13" height="2" rx="1" fill="#E5E7EC"/>
<rect x="77" y="158" width="9" height="2" rx="1" fill="#E5E7EC"/>
<circle cx="71" cy="157" r="3" fill="#E5E7EC"/>
<rect x="37" y="64" width="25" height="104" fill="#000F40"/>
<path d="M68.7617 83V74.4688H71.75C72.7852 74.4688 73.5703 74.668 74.1055 75.0664C74.6406 75.4609 74.9082 76.041 74.9082 76.8066C74.9082 77.2246 74.8008 77.5938 74.5859 77.9141C74.3711 78.2305 74.0723 78.4629 73.6895 78.6113C74.127 78.7207 74.4707 78.9414 74.7207 79.2734C74.9746 79.6055 75.1016 80.0117 75.1016 80.4922C75.1016 81.3125 74.8398 81.9336 74.3164 82.3555C73.793 82.7773 73.0469 82.9922 72.0781 83H68.7617ZM70.5195 79.2852V81.5879H72.0254C72.4395 81.5879 72.7617 81.4902 72.9922 81.2949C73.2266 81.0957 73.3438 80.8223 73.3438 80.4746C73.3438 79.6934 72.9395 79.2969 72.1309 79.2852H70.5195ZM70.5195 78.043H71.8203C72.707 78.0273 73.1504 77.6738 73.1504 76.9824C73.1504 76.5957 73.0371 76.3184 72.8105 76.1504C72.5879 75.9785 72.2344 75.8926 71.75 75.8926H70.5195V78.043ZM78.9685 78.5527L80.0349 76.6602H81.8455L80.0408 79.7656L81.9216 83H80.1052L78.9744 81.0078L77.8494 83H76.0271L77.908 79.7656L76.1091 76.6602H77.9255L78.9685 78.5527ZM82.4019 79.7715C82.4019 79.1426 82.523 78.582 82.7652 78.0898C83.0073 77.5977 83.355 77.2168 83.8081 76.9473C84.2652 76.6777 84.7945 76.543 85.396 76.543C86.2515 76.543 86.9487 76.8047 87.4878 77.3281C88.0308 77.8516 88.3335 78.5625 88.396 79.4609L88.4077 79.8945C88.4077 80.8672 88.1362 81.6484 87.5933 82.2383C87.0503 82.8242 86.3218 83.1172 85.4077 83.1172C84.4937 83.1172 83.7632 82.8242 83.2163 82.2383C82.6734 81.6523 82.4019 80.8555 82.4019 79.8477V79.7715ZM84.0952 79.8945C84.0952 80.4961 84.2085 80.957 84.4351 81.2773C84.6616 81.5938 84.9859 81.752 85.4077 81.752C85.8179 81.752 86.1382 81.5957 86.3687 81.2832C86.5991 80.9668 86.7144 80.4629 86.7144 79.7715C86.7144 79.1816 86.5991 78.7246 86.3687 78.4004C86.1382 78.0762 85.814 77.9141 85.396 77.9141C84.982 77.9141 84.6616 78.0762 84.4351 78.4004C84.2085 78.7207 84.0952 79.2188 84.0952 79.8945ZM89.3567 81.6348C89.7395 81.2285 89.9993 80.8262 90.136 80.4277C90.2727 80.0293 90.3489 79.4648 90.3645 78.7344L90.4114 76.6602H95.0755V81.6348H95.9895V84.9043H94.2962V83H90.5403V84.9043H88.8118V81.6348H89.3567ZM91.3548 81.6348H93.388V78.0605H92.0696L92.0579 78.8223C92.0227 79.9863 91.7884 80.9238 91.3548 81.6348ZM102.376 76.6602V83H100.689V80.8086H99.6162L98.3975 83H96.6807L98.0635 80.5215C97.6846 80.3457 97.3916 80.1074 97.1846 79.8066C96.9815 79.5059 96.8799 79.1641 96.8799 78.7812C96.8799 78.168 97.1162 77.666 97.5889 77.2754C98.0655 76.8809 98.7022 76.6758 99.4991 76.6602H102.376ZM99.5284 79.625H100.689V78.0195H99.587C99.2862 78.0195 99.042 78.0996 98.8545 78.2598C98.667 78.416 98.5733 78.6074 98.5733 78.834C98.5733 79.0605 98.6631 79.248 98.8428 79.3965C99.0225 79.5449 99.251 79.6211 99.5284 79.625ZM105.721 76.6602V81.6348H107.462V76.6602H109.161V81.6348H110.895V76.6602H112.595V81.6465H113.854L113.737 84.8809H112.161V83H104.028V76.6602H105.721ZM118.911 76.6602H120.604V83H118.911V79.0859L116.79 83H115.09V76.6602H116.79V80.5684L118.911 76.6602ZM125.057 83.1172C124.127 83.1172 123.369 82.832 122.784 82.2617C122.201 81.6914 121.91 80.9316 121.91 79.9824V79.8184C121.91 79.1816 122.034 78.6133 122.28 78.1133C122.526 77.6094 122.873 77.2227 123.323 76.9531C123.776 76.6797 124.291 76.543 124.869 76.543C125.737 76.543 126.418 76.8164 126.914 77.3633C127.414 77.9102 127.664 78.6855 127.664 79.6895V80.3809H123.627C123.682 80.7949 123.846 81.127 124.119 81.377C124.397 81.627 124.746 81.752 125.168 81.752C125.821 81.752 126.33 81.5156 126.698 81.043L127.53 81.9746C127.276 82.334 126.932 82.6152 126.498 82.8184C126.065 83.0176 125.584 83.1172 125.057 83.1172ZM124.864 77.9141C124.528 77.9141 124.254 78.0273 124.043 78.2539C123.836 78.4805 123.703 78.8047 123.645 79.2266H126V79.0918C125.993 78.7168 125.891 78.4277 125.696 78.2246C125.5 78.0176 125.223 77.9141 124.864 77.9141Z" fill="#000F40"/>
<rect x="37" y="52" width="146" height="12" fill="#FF1919"/>
<circle cx="44" cy="58" r="3" fill="white"/>
<rect x="43" y="70" width="13" height="2" rx="1" fill="white"/>
<rect x="43" y="76" width="13" height="2" rx="1" fill="white"/>
<rect x="43" y="82" width="13" height="2" rx="1" fill="white"/>
<rect x="43" y="88" width="13" height="2" rx="1" fill="white"/>
<rect x="43" y="94" width="13" height="2" rx="1" fill="white"/>
<rect x="74" y="55" width="72" height="6" rx="3" fill="white"/>
</svg>
