<svg width="220" height="220" viewBox="0 0 220 220" fill="none" xmlns="http://www.w3.org/2000/svg">
<g clip-path="url(#clip0)">
<path d="M0 0H220V220H0V0Z" fill="#000F40"/>
<path d="M15 163.481C6.08616 147.681 1 129.434 1 110C1 49.801 49.801 1 110 1C143.079 1 172.717 15.7353 192.707 39M58.5 206.091C73.8366 214.327 91.3726 219 110 219C170.199 219 219 170.199 219 110C219 89.5004 213.341 70.3226 203.5 53.9434" stroke="#333F66" stroke-width="2"/>
<path d="M203 110C203 58.6375 161.362 17 110 17C104.369 17 98.8551 17.5004 93.5 18.4593M33.9198 163.5C23.2601 148.369 17 129.916 17 110C17 100.243 18.5026 90.8365 21.289 82M65 191.407C78.3348 198.794 93.6762 203 110 203C127.982 203 144.772 197.897 159 189.059M172 179.319C185.791 166.976 195.876 150.579 200.383 132M76.5 23.2163C56.237 31.0434 39.4026 45.7629 28.8715 64.5" stroke="#333F66" stroke-width="2"/>
<path d="M181.751 82C170.55 53.3185 142.648 33 110 33C82.7559 33 58.8165 47.1492 45.1293 68.5M185.73 96C186.564 100.54 187 105.219 187 110C187 152.526 152.526 187 110 187C67.4741 187 33 152.526 33 110C33 101.063 34.5227 92.4808 37.3228 84.5" stroke="#333F66" stroke-width="2"/>
<path d="M175 150L189 159" stroke="#333F66" stroke-width="2"/>
<path d="M136.5 164.959C156.916 155.096 171 134.193 171 110C171 76.3106 143.689 49 110 49C106.942 49 103.937 49.225 101 49.6593M122.5 169.718C118.465 170.558 114.284 171 110 171C95.1683 171 81.573 165.707 71 156.906M82.5 55.5357C62.6254 65.5906 49 86.2041 49 110C49 123.243 53.2199 135.5 60.3883 145.5" stroke="#333F66" stroke-width="2"/>
<path d="M78.3614 142C70.1116 133.843 65 122.518 65 110C65 100.533 67.9236 91.7481 72.9173 84.5M90.3614 150.5C96.2959 153.383 102.959 155 110 155C134.853 155 155 134.853 155 110C155 85.1472 134.853 65 110 65C100.314 65 91.3425 68.0603 84 73.2668" stroke="#333F66" stroke-width="2"/>
<path d="M116 138.379C114.064 138.786 112.057 139 110 139C93.9837 139 81 126.016 81 110C81 100.922 85.1715 92.8175 91.7024 87.5M128.5 132.334C134.915 127.014 139 118.984 139 110C139 93.9837 126.016 81 110 81C107.943 81 105.936 81.2142 104 81.6214" stroke="#333F66" stroke-width="2"/>
<path d="M11.5 157L26 150.5" stroke="#333F66" stroke-width="2"/>
<path d="M65.5 209.5L72 195" stroke="#333F66" stroke-width="2"/>
<path d="M201 92L216.5 89" stroke="#333F66" stroke-width="2"/>
<path d="M174.5 70L189.5 61.5" stroke="#333F66" stroke-width="2"/>
<path d="M142 59.5L151 45" stroke="#333F66" stroke-width="2"/>
<path d="M84 164L76.5 179.5" stroke="#333F66" stroke-width="2"/>
<path d="M140.5 142L152 154" stroke="#333F66" stroke-width="2"/>
<path d="M49.5 119.5L66.5 116.5" stroke="#333F66" stroke-width="2"/>
<path d="M69 129.5L84.5 122.5" stroke="#333F66" stroke-width="2"/>
<path d="M135 97.5L150 91" stroke="#333F66" stroke-width="2"/>
<path d="M119.5 50L116.5 65.5" stroke="#333F66" stroke-width="2"/>
<path d="M55 136.5L40.5 143.5" stroke="#333F66" stroke-width="2"/>
<path d="M19 93L34.5 96" stroke="#333F66" stroke-width="2"/>
<path d="M26.5 39.5L39.5 49.5" stroke="#333F66" stroke-width="2"/>
<path d="M125.572 160.371L131.572 175.371L133.429 174.629L127.429 159.629L125.572 160.371ZM81.4472 14.1353C81.7689 14.0397 82.0913 13.9456 82.4143 13.853L81.8637 11.9303C81.5341 12.0247 81.2053 12.1207 80.8771 12.2183L81.4472 14.1353ZM82.4143 13.853C91.1755 11.344 100.43 10 110 10V8C100.242 8 90.8022 9.37057 81.8637 11.9303L82.4143 13.853ZM209.414 120.892C206.306 149.586 191.059 174.641 168.91 190.814L170.09 192.43C192.677 175.936 208.232 150.38 211.402 121.108L209.414 120.892ZM110 10C144.133 10 174.273 27.1005 192.318 53.2063L193.964 52.0691C175.561 25.4462 144.818 8 110 8V10ZM192.318 53.2063C192.514 53.4898 192.709 53.7744 192.902 54.0601L194.559 52.9399C194.362 52.6486 194.164 52.3583 193.964 52.0691L192.318 53.2063ZM81.0576 12.8344L81.1966 13.2261L83.0814 12.5573L82.9425 12.1656L81.0576 12.8344ZM81.1966 13.2261L86.5576 28.3344L88.4425 27.6656L83.0815 12.5573L81.1966 13.2261ZM110 194C92.6122 194 76.4611 188.718 63.0599 179.671L61.9409 181.329C75.6622 190.592 92.2011 196 110 196V194ZM160.894 176.833C160.603 177.055 160.31 177.275 160.016 177.493L161.208 179.099C161.509 178.875 161.809 178.65 162.106 178.423L160.894 176.833ZM160.016 177.493C146.043 187.865 128.74 194 110 194V196C129.183 196 146.903 189.718 161.208 179.099L160.016 177.493ZM194 110C194 113.383 193.8 116.718 193.412 119.995L195.398 120.231C195.795 116.876 196 113.461 196 110H194ZM193.412 119.995C193.377 120.288 193.341 120.58 193.303 120.872L195.287 121.128C195.325 120.829 195.362 120.53 195.398 120.231L193.412 119.995ZM190.605 86.2818C190.705 86.6231 190.803 86.9652 190.9 87.3082L192.825 86.7691C192.727 86.4179 192.627 86.0676 192.524 85.7182L190.605 86.2818ZM190.9 87.3082C192.92 94.5251 194 102.136 194 110H196C196 101.952 194.894 94.1598 192.825 86.7691L190.9 87.3082ZM33.654 74.9181C44.0639 52.3017 64.2282 35.1025 88.7523 28.7103L88.2478 26.775C63.1354 33.3205 42.4941 50.9288 31.8372 74.0819L33.654 74.9181ZM33.0653 74.4006L47.245 81.2459L48.1145 79.4448L33.9348 72.5994L33.0653 74.4006ZM47.245 81.2459L47.5653 81.4006L48.4348 79.5994L48.1145 79.4448L47.245 81.2459ZM159.207 178.11L159.82 178.906L161.405 177.686L160.793 176.89L159.207 178.11ZM159.82 178.906L169.207 191.11L170.793 189.89L161.405 177.686L159.82 178.906ZM193.376 120.992L194.281 121.105L194.529 119.121L193.624 119.008L193.376 120.992ZM194.281 121.105L209.376 122.992L209.624 121.008L194.529 119.121L194.281 121.105ZM178 110C178 140.156 158.37 165.729 131.189 174.634L131.811 176.535C159.79 167.368 180 141.046 180 110H178ZM175.1 90.2894C175.235 90.738 175.367 91.1886 175.493 91.6411L177.419 91.1023C177.289 90.6364 177.154 90.1725 177.014 89.7106L175.1 90.2894ZM175.493 91.6411C177.126 97.48 178 103.637 178 110H180C180 103.453 179.101 97.1149 177.419 91.1023L175.493 91.6411ZM48.0529 81.9135C48.226 81.5323 48.4025 81.153 48.5824 80.7757L46.777 79.9151C46.5918 80.3036 46.4101 80.6941 46.2319 81.0865L48.0529 81.9135ZM48.5824 80.7757C56.748 63.646 71.8692 50.4699 90.2895 44.9003L89.7106 42.9859C70.7451 48.7204 55.182 62.2832 46.777 79.9151L48.5824 80.7757ZM127.29 159.057C121.882 160.963 116.063 162 110 162V164C116.293 164 122.336 162.923 127.954 160.943L127.29 159.057ZM110 162C97.9823 162 86.9193 157.924 78.1138 151.079L76.8863 152.658C86.0304 159.767 97.5222 164 110 164V162ZM71.7357 74.7882C77.7675 68.2369 85.459 63.2395 94.1413 60.4623L93.532 58.5574C84.5126 61.4424 76.526 66.6326 70.2644 73.4335L71.7357 74.7882ZM94.1413 60.4623C94.5199 60.3412 94.9003 60.2243 95.2826 60.1118L94.7175 58.1932C94.3204 58.3102 93.9252 58.4316 93.532 58.5574L94.1413 60.4623ZM110 146C102.199 146 94.9811 143.52 89.0863 139.306L87.9231 140.933C94.146 145.382 101.769 148 110 148V146ZM89.0863 139.306C88.7562 139.07 88.4303 138.828 88.1087 138.582L86.8914 140.168C87.2308 140.429 87.5748 140.684 87.9231 140.933L89.0863 139.306ZM127.026 141.727C121.958 144.453 116.161 146 110 146V148C116.5 148 122.621 146.367 127.974 143.489L127.026 141.727ZM83.4604 85.6759C83.7304 85.3814 84.0053 85.0915 84.2848 84.8062L82.8563 83.4064C82.5613 83.7075 82.2713 84.0134 81.9864 84.3241L83.4604 85.6759ZM84.2848 84.8062C87.0777 81.9559 90.3402 79.5682 93.9466 77.7685L93.0535 75.9789C89.2461 77.879 85.8031 80.399 82.8563 83.4064L84.2848 84.8062ZM110 130C98.9543 130 90 121.046 90 110H88C88 122.15 97.8498 132 110 132V130ZM119.472 127.62C119.116 127.811 118.754 127.992 118.386 128.163L119.225 129.978C119.63 129.791 120.029 129.591 120.42 129.38L119.472 127.62ZM118.386 128.163C115.837 129.342 112.997 130 110 130V132C113.292 132 116.418 131.276 119.225 129.978L118.386 128.163ZM90 110C90 102.251 94.4064 95.53 100.855 92.2084L99.9389 90.4304C92.8509 94.0815 88 101.473 88 110H90ZM100.855 92.2084C101.199 92.031 101.549 91.8633 101.905 91.7056L101.095 89.8771C100.703 90.0506 100.318 90.2352 99.9389 90.4304L100.855 92.2084ZM62.1778 180.931L53.1778 193.931L54.8222 195.069L63.8222 182.069L62.1778 180.931ZM191.729 86.0374L191.592 86.076L192.133 88.0013L192.271 87.9626L191.729 86.0374ZM191.592 86.076L176.185 90.4091L176.727 92.3344L192.133 88.0013L191.592 86.076ZM176.185 90.4091L175.729 90.5374L176.271 92.4626L176.727 92.3344L176.185 90.4091ZM79.7809 152.625L89.2856 140.744L87.7238 139.494L78.2192 151.375L79.7809 152.625ZM89.2856 140.744L89.7809 140.125L88.2192 138.875L87.7238 139.494L89.2856 140.744ZM117.619 128.972L117.924 129.542L119.687 128.598L119.382 128.028L117.619 128.972ZM117.924 129.543L125.119 142.972L126.882 142.028L119.687 128.598L117.924 129.543ZM91.6318 77.9961L99.5286 91.8156L101.265 90.8233L93.3683 77.0039L91.6318 77.9961ZM99.5286 91.8156L99.6318 91.9961L101.368 91.0039L101.265 90.8233L99.5286 91.8156ZM71.3243 74.2372L82.8948 84.8435L84.2463 83.3692L72.6758 72.7628L71.3243 74.2372ZM82.8948 84.8435L83.3243 85.2372L84.6758 83.7628L84.2463 83.3692L82.8948 84.8435ZM88.0514 45.3162L92.888 59.8261L94.7853 59.1936L89.9487 44.6838L88.0514 45.3162ZM92.888 59.8261L93.0514 60.3162L94.9487 59.6838L94.7853 59.1936L92.888 59.8261ZM192.992 53.8706L193.633 53.5082L192.649 51.7671L192.008 52.1294L192.992 53.8706ZM193.633 53.5082L204.492 47.3706L203.508 45.6294L192.649 51.7671L193.633 53.5082Z" fill="#FFCCCC"/>
<path d="M220 16C220 23.6371 208.049 41.9755 204.804 46.8133C204.415 47.3943 203.585 47.3943 203.196 46.8133C199.951 41.9755 188 23.6371 188 16C188 7.16344 195.163 0 204 0C212.837 0 220 7.16344 220 16Z" fill="#FF0000"/>
<circle cx="204" cy="16" r="10" fill="white"/>
<path fill-rule="evenodd" clip-rule="evenodd" d="M9.24199 172.61C10.748 171.408 11.484 169.386 10.9534 167.406C10.2386 164.739 7.49696 163.156 4.82963 163.87C2.1623 164.585 0.579386 167.327 1.2941 169.994C1.82476 171.975 3.47286 173.357 5.37829 173.645L17.6505 219.446L21.5142 218.411L9.24199 172.61Z" fill="#FFCCCC"/>
<rect x="19.4065" y="179.635" width="32" height="24" transform="rotate(-15 19.4065 179.635)" fill="#FF0000"/>
<rect x="6.26245" y="176.945" width="32" height="24" transform="rotate(-15 6.26245 176.945)" fill="white"/>
<circle cx="24.8231" cy="184.395" r="8" transform="rotate(-15 24.8231 184.395)" fill="#FF0000"/>
<mask id="mask0" mask-type="alpha" maskUnits="userSpaceOnUse" x="15" y="174" width="20" height="21">
<circle cx="24.8231" cy="184.395" r="8" transform="rotate(-15 24.8231 184.395)" fill="#FF0000"/>
</mask>
<g mask="url(#mask0)">
<path d="M21.6639 176.039L20.9822 183.832L23.1074 184.018L22.5496 190.393L28.2522 182.326L25.4186 182.078L28.0396 176.597L21.6639 176.039Z" fill="white"/>
</g>
<path d="M24.0652 197.021L43.3837 191.845L36.2433 199.97L25.6181 202.817L24.0652 197.021Z" fill="#FF8080"/>
<rect x="59.6569" y="122" width="6" height="6" transform="rotate(45 59.6569 122)" fill="#FF8080"/>
<rect x="77.6569" y="201" width="6" height="6" transform="rotate(45 77.6569 201)" fill="#FF8080"/>
<rect x="126.657" y="55" width="6" height="6" transform="rotate(45 126.657 55)" fill="#FF8080"/>
<rect x="206.657" y="78" width="6" height="6" transform="rotate(45 206.657 78)" fill="#FF8080"/>
<path d="M168 67L172 75H164L168 67Z" fill="#FF8080"/>
<path d="M106 174L110 182H102L106 174Z" fill="#FF8080"/>
<path d="M29 127L33 135H25L29 127Z" fill="#FF8080"/>
<path d="M61.3721 158.944C61.3721 158.306 61.4495 157.798 61.6045 157.42C61.7594 157.042 62.042 156.67 62.4521 156.306C62.8669 155.937 63.1426 155.638 63.2793 155.41C63.416 155.178 63.4844 154.934 63.4844 154.679C63.4844 153.909 63.1289 153.523 62.418 153.523C62.0807 153.523 61.8096 153.628 61.6045 153.838C61.404 154.043 61.2992 154.328 61.29 154.692H59.3076C59.3167 153.822 59.597 153.141 60.1484 152.648C60.7044 152.156 61.4609 151.91 62.418 151.91C63.3841 151.91 64.1338 152.145 64.667 152.614C65.2002 153.079 65.4668 153.738 65.4668 154.59C65.4668 154.977 65.3802 155.344 65.207 155.69C65.0339 156.032 64.7308 156.413 64.2979 156.832L63.7441 157.358C63.3978 157.691 63.1995 158.081 63.1494 158.527L63.1221 158.944H61.3721ZM61.1738 161.043C61.1738 160.738 61.2764 160.487 61.4814 160.291C61.6911 160.09 61.9577 159.99 62.2812 159.99C62.6048 159.99 62.8691 160.09 63.0742 160.291C63.2839 160.487 63.3887 160.738 63.3887 161.043C63.3887 161.344 63.2861 161.592 63.0811 161.788C62.8805 161.984 62.6139 162.082 62.2812 162.082C61.9486 162.082 61.6797 161.984 61.4746 161.788C61.2741 161.592 61.1738 161.344 61.1738 161.043Z" fill="#FF8080"/>
<path d="M145.372 113.944C145.372 113.306 145.45 112.798 145.604 112.42C145.759 112.042 146.042 111.67 146.452 111.306C146.867 110.937 147.143 110.638 147.279 110.41C147.416 110.178 147.484 109.934 147.484 109.679C147.484 108.909 147.129 108.523 146.418 108.523C146.081 108.523 145.81 108.628 145.604 108.838C145.404 109.043 145.299 109.328 145.29 109.692H143.308C143.317 108.822 143.597 108.141 144.148 107.648C144.704 107.156 145.461 106.91 146.418 106.91C147.384 106.91 148.134 107.145 148.667 107.614C149.2 108.079 149.467 108.738 149.467 109.59C149.467 109.977 149.38 110.344 149.207 110.69C149.034 111.032 148.731 111.413 148.298 111.832L147.744 112.358C147.398 112.691 147.2 113.081 147.149 113.527L147.122 113.944H145.372ZM145.174 116.043C145.174 115.738 145.276 115.487 145.481 115.291C145.691 115.09 145.958 114.99 146.281 114.99C146.605 114.99 146.869 115.09 147.074 115.291C147.284 115.487 147.389 115.738 147.389 116.043C147.389 116.344 147.286 116.592 147.081 116.788C146.881 116.984 146.614 117.082 146.281 117.082C145.949 117.082 145.68 116.984 145.475 116.788C145.274 116.592 145.174 116.344 145.174 116.043Z" fill="#FF8080"/>
<path d="M54.3721 26.9443C54.3721 26.3063 54.4495 25.7982 54.6045 25.4199C54.7594 25.0417 55.042 24.6702 55.4521 24.3057C55.8669 23.9365 56.1426 23.638 56.2793 23.4102C56.416 23.1777 56.4844 22.9339 56.4844 22.6787C56.4844 21.9085 56.1289 21.5234 55.418 21.5234C55.0807 21.5234 54.8096 21.6283 54.6045 21.8379C54.404 22.043 54.2992 22.3278 54.29 22.6924H52.3076C52.3167 21.8219 52.597 21.1406 53.1484 20.6484C53.7044 20.1562 54.4609 19.9102 55.418 19.9102C56.3841 19.9102 57.1338 20.1449 57.667 20.6143C58.2002 21.0791 58.4668 21.7376 58.4668 22.5898C58.4668 22.9772 58.3802 23.3441 58.207 23.6904C58.0339 24.0322 57.7308 24.4128 57.2979 24.832L56.7441 25.3584C56.3978 25.6911 56.1995 26.0807 56.1494 26.5273L56.1221 26.9443H54.3721ZM54.1738 29.043C54.1738 28.7376 54.2764 28.487 54.4814 28.291C54.6911 28.0905 54.9577 27.9902 55.2812 27.9902C55.6048 27.9902 55.8691 28.0905 56.0742 28.291C56.2839 28.487 56.3887 28.7376 56.3887 29.043C56.3887 29.3438 56.2861 29.5921 56.0811 29.7881C55.8805 29.984 55.6139 30.082 55.2812 30.082C54.9486 30.082 54.6797 29.984 54.4746 29.7881C54.2741 29.5921 54.1738 29.3438 54.1738 29.043Z" fill="#FF8080"/>
<path fill-rule="evenodd" clip-rule="evenodd" d="M106 108C107.657 108 109 106.657 109 105C109 103.343 107.657 102 106 102C104.343 102 103 103.343 103 105C103 106.657 104.343 108 106 108ZM114 108C115.657 108 117 106.657 117 105C117 103.343 115.657 102 114 102C112.343 102 111 103.343 111 105C111 106.657 112.343 108 114 108ZM109 113C109 114.657 107.657 116 106 116C104.343 116 103 114.657 103 113C103 111.343 104.343 110 106 110C107.657 110 109 111.343 109 113ZM114 116C115.657 116 117 114.657 117 113C117 111.343 115.657 110 114 110C112.343 110 111 111.343 111 113C111 114.657 112.343 116 114 116Z" fill="#FF8080"/>
<path d="M10 89L11.1226 92.4549H14.7553L11.8164 94.5902L12.9389 98.0451L10 95.9098L7.06107 98.0451L8.18364 94.5902L5.24472 92.4549H8.87743L10 89Z" fill="#FF8080"/>
<path d="M174 161L175.123 164.455H178.755L175.816 166.59L176.939 170.045L174 167.91L171.061 170.045L172.184 166.59L169.245 164.455H172.877L174 161Z" fill="#FF8080"/>
<path d="M148 29L149.123 32.4549H152.755L149.816 34.5902L150.939 38.0451L148 35.9098L145.061 38.0451L146.184 34.5902L143.245 32.4549H146.877L148 29Z" fill="#FF8080"/>
</g>
<defs>
<clipPath id="clip0">
<path d="M0 0H220V220H0V0Z" fill="white"/>
</clipPath>
</defs>
</svg>
