<svg width="632" height="350" fill="none" xmlns="http://www.w3.org/2000/svg">
  <g clip-path="url(#clip0)">
    <path fill="#fff" d="M0 0h632v350H0z"/>
    <path d="M28.73 185.7v-22.65h5.035v-23.908h4.405v-16.044L49.498 110.2l12.587 12.898v16.044h5.35v23.908h5.034v30.829h5.035v23.279h12.303v-67.006h12.902v-16.987h4.405v-10.067h31.152v10.067h24.859v16.987h4.405v22.021h11.328v-53.479h6.923v-5.977l14.474-13.842h53.179l11.957 13.842v5.977h6.293v95.948h11.958V98.875h62.618v-14.47h4.72V80h40.277v18.875h4.72v36.177h2.203v-4.404h10.069l11.328-17.931h13.845l10.07 17.931h3.776v4.404h6.608v9.123h4.72v84.938h5.664v4.089h4.09v4.719h5.664v6.921h68.064v-72.669h41.85v-9.438h4.091V152.04l10.384-7.865 11.013 7.865v20.133h5.979v42.469h10.918v133.383h-55.382v19.504h-77.093V382h-85.589v-22.65h-39.333v-8.179h-15.419v12.269H237.7v-22.021h-83.071v20.133H54.565v-10.381H6.075v-120.8H28.73V185.7z" fill="#F0F2F7"/>
    <path fill-rule="evenodd" clip-rule="evenodd" d="M512.293 55.707l-18-18 1.414-1.414 18 18-1.414 1.414z" fill="#CCCFD9"/>
    <path fill-rule="evenodd" clip-rule="evenodd" d="M513.707 55.707l-18 18-1.414-1.414 18-18 1.414 1.414z" fill="#CCCFD9"/>
    <path fill-rule="evenodd" clip-rule="evenodd" d="M512.293 91.707l-18-18 1.414-1.414 18 18-1.414 1.414z" fill="#CCCFD9"/>
    <path fill-rule="evenodd" clip-rule="evenodd" d="M513.707 91.707l-18 18-1.414-1.414 18-18 1.414 1.414z" fill="#CCCFD9"/>
    <path fill-rule="evenodd" clip-rule="evenodd" d="M512.293 127.707l-18-18 1.414-1.414 18 18-1.414 1.414z" fill="#CCCFD9"/>
    <path fill-rule="evenodd" clip-rule="evenodd" d="M513.707 127.707l-18 18-1.414-1.414 18-18 1.414 1.414z" fill="#CCCFD9"/>
    <path fill-rule="evenodd" clip-rule="evenodd" d="M512.293 163.707l-18-18 1.414-1.414 18 18-1.414 1.414z" fill="#CCCFD9"/>
    <path fill-rule="evenodd" clip-rule="evenodd" d="M513.707 163.707l-18 18-1.414-1.414 18-18 1.414 1.414zM513.707 199.707l-18 18-1.414-1.414 18-18 1.414 1.414z" fill="#CCCFD9"/>
    <path fill-rule="evenodd" clip-rule="evenodd" d="M512.293 235.707l-18-18 1.414-1.414 18 18-1.414 1.414z" fill="#CCCFD9"/>
    <path fill-rule="evenodd" clip-rule="evenodd" d="M513.707 235.707l-18 18-1.414-1.414 18-18 1.414 1.414z" fill="#CCCFD9"/>
    <path fill-rule="evenodd" clip-rule="evenodd" d="M512.293 271.707l-18-18 1.414-1.414 18 18-1.414 1.414z" fill="#CCCFD9"/>
    <path fill-rule="evenodd" clip-rule="evenodd" d="M513.707 272.707l-18 18-1.414-1.414 18-18 1.414 1.414zM513.707 309.707l-18 18-1.414-1.414 18-18 1.414 1.414z" fill="#CCCFD9"/>
    <path fill-rule="evenodd" clip-rule="evenodd" d="M512.293 308.707l-18-18 1.414-1.414 18 18-1.414 1.414zM512.293 199.707l-18-18 1.414-1.414 18 18-1.414 1.414z" fill="#CCCFD9"/>
    <path d="M488 328h32v10h-32v-10zM479 338h50v10h-50v-10zM494 36h2v292h-2V36zM512 36h2v292h-2V36z" fill="#CCCFD9"/>
    <path d="M483 36h42v2h-42v-2zM242 15h249v2H242v-2zM226 31h268v2H226v-2z" fill="#CCCFD9"/>
    <path fill-rule="evenodd" clip-rule="evenodd" d="M242.652 16.375a2.001 2.001 0 012.696 0L261 30.647l15.652-14.272a2.001 2.001 0 012.696 0L295 30.647l15.652-14.272a2.001 2.001 0 012.696 0L329 30.647l15.652-14.272a2.001 2.001 0 012.696 0L363 30.647l15.652-14.272a2.001 2.001 0 012.696 0L397 30.647l15.652-14.272a2.001 2.001 0 012.696 0l16.326 14.886-1.348 1.478L414 17.853l-15.652 14.272a2.001 2.001 0 01-2.696 0L380 17.853l-15.652 14.272a2.001 2.001 0 01-2.696 0L346 17.853l-15.652 14.272a2.001 2.001 0 01-2.696 0L312 17.853l-15.652 14.272a2.001 2.001 0 01-2.696 0L278 17.853l-15.652 14.272a2.001 2.001 0 01-2.696 0L244 17.853 227.674 32.74l-1.348-1.478 16.326-14.886z" fill="#CCCFD9"/>
    <path fill-rule="evenodd" clip-rule="evenodd" d="M310.652 16.375l-16.326 14.886 1.348 1.478L312 17.853l15.652 14.272a2.001 2.001 0 002.696 0L346 17.853l15.652 14.272a2.001 2.001 0 002.696 0L380 17.853l15.652 14.272a2.001 2.001 0 002.696 0L414 17.853l15.652 14.272a2.001 2.001 0 002.696 0L448 17.853l15.652 14.272a2.001 2.001 0 002.696 0l16.326-14.886-1.348-1.478L465 30.647l-15.652-14.272a2.001 2.001 0 00-2.696 0L431 30.647l-15.652-14.272a2.001 2.001 0 00-2.696 0L397 30.647l-15.652-14.272a2.001 2.001 0 00-2.696 0L363 30.647l-15.652-14.272a2.001 2.001 0 00-2.696 0L329 30.647l-15.652-14.272a2.001 2.001 0 00-2.696 0z" fill="#CCCFD9"/>
    <path d="M483 2h24v34h-19l-5-6V2z" fill="#CCCFD9"/>
    <path d="M485 3h20v14h-20V3z" fill="#fff"/>
    <path d="M523 29h104v2H523v-2z" fill="#CCCFD9"/>
    <path d="M485 17h20v17h-17l-3-4V17z" fill="#fff"/>
    <path d="M626 25h6v12h-6V25zM618 13h10v12h-10V13z" fill="#CCCFD9"/>
    <path d="M523 24h104v2H523v-2zM294 107h32v12h-32v-12z" fill="#CCCFD9"/>
    <path fill-rule="evenodd" clip-rule="evenodd" d="M309.739 95.798l15.809 10.366-1.096 1.672-14.694-9.634-14.197 9.626-1.122-1.656 15.3-10.374zM308.5 94V31.5h2V94h-2z" fill="#CCCFD9"/>
    <path d="M312 31.5a2.5 2.5 0 11-5 0 2.5 2.5 0 015 0z" fill="#fff"/>
    <path fill-rule="evenodd" clip-rule="evenodd" d="M309.5 30a1.5 1.5 0 100 3 1.5 1.5 0 000-3zm-3.5 1.5a3.5 3.5 0 117 0 3.5 3.5 0 01-7 0z" fill="#CCCFD9"/>
    <path d="M312 96.5a2.5 2.5 0 11-5 0 2.5 2.5 0 015 0z" fill="#fff"/>
    <path fill-rule="evenodd" clip-rule="evenodd" d="M309.5 95a1.5 1.5 0 100 3 1.5 1.5 0 000-3zm-3.5 1.5a3.5 3.5 0 117 0 3.5 3.5 0 01-7 0z" fill="#CCCFD9"/>
    <path d="M294 106h3v3h-3v-3zM323 106h3v3h-3v-3zM481 0h28v2h-28V0z" fill="#CCCFD9"/>
    <path d="M510 6h14v32h-14V6z" fill="#fff"/>
    <path fill-rule="evenodd" clip-rule="evenodd" d="M522 8h-10v28h10V8zm-12-2v32h14V6h-14z" fill="#CCCFD9"/>
    <path fill-rule="evenodd" clip-rule="evenodd" d="M618.427 14.997l-95-7 .146-1.994 95 7-.146 1.994zM223.41 153.864V52.091h-73.013s.105.68.273 2c1.414 11.128 7.305 67.744-7.356 145.954-10.241 54.63-40.273 132.549-45.526 145.955-.511 1.306-.788 2-.788 2h255s-.285-.693-.815-2c-5.377-13.268-35.942-89.78-48.768-145.955-6.41-28.07-8.727-39.641-9.438-44.181a57.342 57.342 0 01-.108-.728 22.886 22.886 0 01-.135-1.113c-.005-.056-.01-.109-.013-.159h.461l-.013-.034c-.065-.176-.373-.975-.448-.589-.021.106-.024.301 0 .623H223.41zm67.546 2H221.41V54.091h-68.724l.065.526c.225 1.846.528 4.573.838 8.114.622 7.082 1.277 17.426 1.417 30.508.28 26.161-1.498 63.283-9.726 107.175-5.648 30.128-17.267 67.231-27.447 96.743a1397.429 1397.429 0 01-13.305 36.862 1158.38 1158.38 0 01-4.135 10.807L99.936 346h249.092l-.436-1.08c-1-2.484-2.444-6.099-4.22-10.63a1569.613 1569.613 0 01-13.76-36.444c-10.641-29.294-23.072-66.377-30.145-97.355-3.87-16.947-6.251-27.895-7.689-34.919-.988-4.826-1.541-7.847-1.822-9.708z" fill="#CCCFD9"/>
    <mask id="a" maskUnits="userSpaceOnUse" x="97" y="52" width="255" height="296">
      <path d="M352 348H97s35.075-88.028 46.314-148c16.401-87.515 7.083-148 7.083-148h73.013v101.8h69.313c-.122-1.634.461 0 .461 0h-.461c.182 2.457 1.956 12.302 9.694 46.2C316.506 261.726 352 348 352 348z" fill="#CCCFD9"/>
    </mask>
    <g mask="url(#a)" fill-rule="evenodd" clip-rule="evenodd" fill="#CCCFD9">
      <path d="M183 62h-40v40h40V62zm-42-2v44h44V60h-44z"/>
      <path d="M163 83.414l-19.293 19.293-1.414-1.414L161.586 82l-19.293-19.293 1.414-1.414L163 80.586l19.293-19.293 1.414 1.414L164.414 82l19.293 19.293-1.414 1.414L163 83.414z"/>
      <path d="M225 62h-40v40h40V62zm-42-2v44h44V60h-44z"/>
      <path d="M205 83.414l-19.293 19.293-1.414-1.414L203.586 82l-19.293-19.293 1.414-1.414L205 80.586l19.293-19.293 1.414 1.414L206.414 82l19.293 19.293-1.414 1.414L205 83.414zM183 104h-40v40h40v-40zm-42-2v44h44v-44h-44z"/>
      <path d="M163 125.414l-19.293 19.293-1.414-1.414L161.586 124l-19.293-19.293 1.414-1.414L163 122.586l19.293-19.293 1.414 1.414L164.414 124l19.293 19.293-1.414 1.414L163 125.414z"/>
      <path d="M225 104h-40v40h40v-40zm-42-2v44h44v-44h-44z"/>
      <path d="M205 125.414l-19.293 19.293-1.414-1.414L203.586 124l-19.293-19.293 1.414-1.414L205 122.586l19.293-19.293 1.414 1.414L206.414 124l19.293 19.293-1.414 1.414L205 125.414z"/>
      <path d="M183 146h-40v40h40v-40zm-42-2v44h44v-44h-44z"/>
      <path d="M163 167.414l-19.293 19.293-1.414-1.414L161.586 166l-19.293-19.293 1.414-1.414L163 164.586l19.293-19.293 1.414 1.414L164.414 166l19.293 19.293-1.414 1.414L163 167.414z"/>
      <path d="M225 146h-40v40h40v-40zm-42-2v44h44v-44h-44z"/>
      <path d="M205 167.414l-19.293 19.293-1.414-1.414L203.586 166l-19.293-19.293 1.414-1.414L205 164.586l19.293-19.293 1.414 1.414L206.414 166l19.293 19.293-1.414 1.414L205 167.414z"/>
      <path d="M267 146h-40v40h40v-40zm-42-2v44h44v-44h-44z"/>
      <path d="M247 167.414l-19.293 19.293-1.414-1.414L245.586 166l-19.293-19.293 1.414-1.414L247 164.586l19.293-19.293 1.414 1.414L248.414 166l19.293 19.293-1.414 1.414L247 167.414z"/>
      <path d="M309 146h-40v40h40v-40zm-42-2v44h44v-44h-44z"/>
      <path d="M289 167.414l-19.293 19.293-1.414-1.414L287.586 166l-19.293-19.293 1.414-1.414L289 164.586l19.293-19.293 1.414 1.414L290.414 166l19.293 19.293-1.414 1.414L289 167.414zM183 188h-40v40h40v-40zm-42-2v44h44v-44h-44z"/>
      <path d="M163 209.414l-19.293 19.293-1.414-1.414L161.586 208l-19.293-19.293 1.414-1.414L163 206.586l19.293-19.293 1.414 1.414L164.414 208l19.293 19.293-1.414 1.414L163 209.414z"/>
      <path d="M225 188h-40v40h40v-40zm-42-2v44h44v-44h-44z"/>
      <path d="M205 209.414l-19.293 19.293-1.414-1.414L203.586 208l-19.293-19.293 1.414-1.414L205 206.586l19.293-19.293 1.414 1.414L206.414 208l19.293 19.293-1.414 1.414L205 209.414z"/>
      <path d="M267 188h-40v40h40v-40zm-42-2v44h44v-44h-44z"/>
      <path d="M247 209.414l-19.293 19.293-1.414-1.414L245.586 208l-19.293-19.293 1.414-1.414L247 206.586l19.293-19.293 1.414 1.414L248.414 208l19.293 19.293-1.414 1.414L247 209.414z"/>
      <path d="M309 188h-40v40h40v-40zm-42-2v44h44v-44h-44z"/>
      <path d="M289 209.414l-19.293 19.293-1.414-1.414L287.586 208l-19.293-19.293 1.414-1.414L289 206.586l19.293-19.293 1.414 1.414L290.414 208l19.293 19.293-1.414 1.414L289 209.414zM183 230h-40v40h40v-40zm-42-2v44h44v-44h-44z"/>
      <path d="M163 251.414l-19.293 19.293-1.414-1.414L161.586 250l-19.293-19.293 1.414-1.414L163 248.586l19.293-19.293 1.414 1.414L164.414 250l19.293 19.293-1.414 1.414L163 251.414z"/>
      <path d="M225 230h-40v40h40v-40zm-42-2v44h44v-44h-44z"/>
      <path d="M205 251.414l-19.293 19.293-1.414-1.414L203.586 250l-19.293-19.293 1.414-1.414L205 248.586l19.293-19.293 1.414 1.414L206.414 250l19.293 19.293-1.414 1.414L205 251.414z"/>
      <path d="M267 230h-40v40h40v-40zm-42-2v44h44v-44h-44z"/>
      <path d="M247 251.414l-19.293 19.293-1.414-1.414L245.586 250l-19.293-19.293 1.414-1.414L247 248.586l19.293-19.293 1.414 1.414L248.414 250l19.293 19.293-1.414 1.414L247 251.414z"/>
      <path d="M309 230h-40v40h40v-40zm-42-2v44h44v-44h-44z"/>
      <path d="M289 251.414l-19.293 19.293-1.414-1.414L287.586 250l-19.293-19.293 1.414-1.414L289 248.586l19.293-19.293 1.414 1.414L290.414 250l19.293 19.293-1.414 1.414L289 251.414zM183 272h-40v40h40v-40zm-42-2v44h44v-44h-44z"/>
      <path d="M163 293.414l-19.293 19.293-1.414-1.414L161.586 292l-19.293-19.293 1.414-1.414L163 290.586l19.293-19.293 1.414 1.414L164.414 292l19.293 19.293-1.414 1.414L163 293.414z"/>
      <path d="M225 272h-40v40h40v-40zm-42-2v44h44v-44h-44z"/>
      <path d="M205 293.414l-19.293 19.293-1.414-1.414L203.586 292l-19.293-19.293 1.414-1.414L205 290.586l19.293-19.293 1.414 1.414L206.414 292l19.293 19.293-1.414 1.414L205 293.414z"/>
      <path d="M267 272h-40v40h40v-40zm-42-2v44h44v-44h-44z"/>
      <path d="M247 293.414l-19.293 19.293-1.414-1.414L245.586 292l-19.293-19.293 1.414-1.414L247 290.586l19.293-19.293 1.414 1.414L248.414 292l19.293 19.293-1.414 1.414L247 293.414z"/>
      <path d="M309 272h-40v40h40v-40zm-42-2v44h44v-44h-44z"/>
      <path d="M289 293.414l-19.293 19.293-1.414-1.414L287.586 292l-19.293-19.293 1.414-1.414L289 290.586l19.293-19.293 1.414 1.414L290.414 292l19.293 19.293-1.414 1.414L289 293.414zM183 314h-40v40h40v-40zm-42-2v44h44v-44h-44z"/>
      <path d="M163 335.414l-19.293 19.293-1.414-1.414L161.586 334l-19.293-19.293 1.414-1.414L163 332.586l19.293-19.293 1.414 1.414L164.414 334l19.293 19.293-1.414 1.414L163 335.414z"/>
      <path d="M225 314h-40v40h40v-40zm-42-2v44h44v-44h-44z"/>
      <path d="M205 335.414l-19.293 19.293-1.414-1.414L203.586 334l-19.293-19.293 1.414-1.414L205 332.586l19.293-19.293 1.414 1.414L206.414 334l19.293 19.293-1.414 1.414L205 335.414z"/>
      <path d="M267 314h-40v40h40v-40zm-42-2v44h44v-44h-44z"/>
      <path d="M247 335.414l-19.293 19.293-1.414-1.414L245.586 334l-19.293-19.293 1.414-1.414L247 332.586l19.293-19.293 1.414 1.414L248.414 334l19.293 19.293-1.414 1.414L247 335.414z"/>
      <path d="M309 314h-40v40h40v-40zm-42-2v44h44v-44h-44z"/>
      <path d="M289 335.414l-19.293 19.293-1.414-1.414L287.586 334l-19.293-19.293 1.414-1.414L289 332.586l19.293-19.293 1.414 1.414L290.414 334l19.293 19.293-1.414 1.414L289 335.414z"/>
    </g>
    <path fill-rule="evenodd" clip-rule="evenodd" d="M574.429 99.934l1.995-.006 18.156 251.91-15.161-19.371h-7.221l-14.421 19.51 16.652-252.043zm1.041 14.579l-15.247 230.79 10.966-14.836h9.205l11.72 14.975-16.644-230.929z" fill="#CCCFD9"/>
    <path fill-rule="evenodd" clip-rule="evenodd" d="M575.945 129.5l-2.48-2.842 1.507-1.316 3.628 4.158-3.055 3.5 3.055 3.5-3.927 4.5 4.8 5.5-6.109 7 6.981 8-7.854 9 9.164 10.5-10.473 12 11.782 13.5-13.528 15.5 15.709 18-18.327 21 20.509 23.5-23.992 27.491 16.909 18.841-1.488 1.336-18.091-20.159 24.008-27.509-20.509-23.5 18.327-21-15.709-18 13.527-15.5-11.782-13.5L579 181l-9.164-10.5 7.855-9-6.982-8 6.109-7-4.8-5.5 3.927-4.5-3.054-3.5 3.054-3.5z" fill="#CCCFD9"/>
    <path fill-rule="evenodd" clip-rule="evenodd" d="M571.351 163.96h9.298l51.68 17.975-.329 1.945H520l-.329-1.945 51.68-17.975zm.338 2l-45.77 15.92h100.162l-45.77-15.92h-8.622zM572.835 126.627h4.828l30.027 10.509-.33 1.944h-62.72l-.346-1.938 28.541-10.515zm.357 2l-22.945 8.453h51.229l-24.153-8.453h-4.131z" fill="#CCCFD9"/>
    <path fill-rule="evenodd" clip-rule="evenodd" d="M557.442 180.68l17.371-16.407 1.374 1.454-18.629 17.593-9.563-7.55-8.995 6.997-5.114-3.978 1.228-1.578 3.886 3.022 9.005-7.003 9.437 7.45z" fill="#CCCFD9"/>
    <path fill-rule="evenodd" clip-rule="evenodd" d="M594.058 180.68l-17.371-16.407-1.374 1.454 18.629 17.593 9.563-7.55 8.995 6.997 5.114-3.978-1.228-1.578-3.886 3.022-9.005-7.003-9.437 7.45zM564.96 135.688l9.869-8.93 1.342 1.484-11.131 10.071-4.966-3.973-4.367 4.367-1.414-1.414 5.633-5.633 5.034 4.028z" fill="#CCCFD9"/>
    <path fill-rule="evenodd" clip-rule="evenodd" d="M585.54 135.688l-9.869-8.93-1.342 1.484 11.131 10.071 4.966-3.973 4.367 4.367 1.414-1.414-5.633-5.633-5.034 4.028zM54.429 99.934l1.995-.006 18.156 251.91-15.16-19.371h-7.222l-14.42 19.51 16.65-252.043zm1.041 14.579l-15.247 230.79 10.966-14.836h9.205l11.72 14.975L55.47 114.513z" fill="#CCCFD9"/>
    <path fill-rule="evenodd" clip-rule="evenodd" d="M55.946 129.5l-2.481-2.842 1.507-1.316L58.6 129.5l-3.055 3.5 3.055 3.5-3.927 4.5 4.8 5.5-6.11 7 6.983 8-7.855 9 9.163 10.5-10.472 12 11.782 13.5L49.436 222l15.71 18-18.328 21 20.51 23.5-23.993 27.491 16.91 18.841-1.49 1.336-18.09-20.159L64.673 284.5 44.163 261l18.328-21-15.71-18 13.528-15.5L48.527 193 59 181l-9.164-10.5 7.855-9-6.982-8 6.11-7-4.8-5.5 3.927-4.5-3.055-3.5 3.055-3.5z" fill="#CCCFD9"/>
    <path fill-rule="evenodd" clip-rule="evenodd" d="M51.351 163.96h9.298l51.68 17.975-.329 1.945H0l-.329-1.945 51.68-17.975zm.338 2l-45.77 15.92h100.162l-45.77-15.92H51.69zM52.835 126.627h4.828l30.027 10.509-.33 1.944H24.64l-.346-1.938 28.541-10.515zm.357 2l-22.945 8.453h51.229l-24.153-8.453h-4.131z" fill="#CCCFD9"/>
    <path fill-rule="evenodd" clip-rule="evenodd" d="M37.441 180.68l17.372-16.407 1.374 1.454-18.628 17.593-9.564-7.55L19 182.767l-5.114-3.978 1.228-1.578L19 180.233l9.005-7.003 9.436 7.45z" fill="#CCCFD9"/>
    <path fill-rule="evenodd" clip-rule="evenodd" d="M74.058 180.68l-17.371-16.407-1.374 1.454 18.629 17.593 9.563-7.55 8.995 6.997 5.114-3.978-1.228-1.578-3.886 3.022-9.005-7.003-9.437 7.45zM44.96 135.688l9.87-8.93 1.34 1.484-11.13 10.071-4.966-3.973-4.367 4.367-1.414-1.414 5.633-5.633 5.034 4.028z" fill="#CCCFD9"/>
    <path fill-rule="evenodd" clip-rule="evenodd" d="M65.54 135.688l-9.87-8.93-1.34 1.484 11.13 10.071 4.966-3.973 4.367 4.367 1.414-1.414-5.633-5.633-5.034 4.028zM349.5 195c-61.174 0-178.609-6.321-239.577-11.003l.154-1.994C171.024 186.683 288.4 193 349.5 193c44.857 0 83.372-3.404 124.831-7.067 14.999-1.326 30.383-2.685 46.592-3.93l.154 1.994c-16.16 1.241-31.517 2.598-46.501 3.922C433.089 191.586 394.452 195 349.5 195zM349.5 150c-61.168 0-202.6-6.321-263.577-11.003l.154-1.994C147.015 141.682 288.394 148 349.5 148c54.936 0 120.603-5.107 177.62-9.541 6.385-.496 12.662-.984 18.803-1.456l.154 1.994c-6.141.472-12.418.96-18.806 1.457C470.269 144.887 404.52 150 349.5 150z" fill="#CCCFD9"/>
    <path fill-rule="evenodd" clip-rule="evenodd" d="M349.5 146c-61.166 0-212.597-6.32-273.577-11.003l.154-1.994C137.012 137.682 288.392 144 349.5 144c61.091 0 145.455-6.315 206.423-10.997l.154 1.994C495.129 139.677 410.683 146 349.5 146zM349.5 191c-61.172 0-187.605-6.321-248.577-11.003l.154-1.994C162.02 182.683 288.398 189 349.5 189c47.965 0 94.854-3.892 142.313-7.832 12.983-1.078 26.009-2.159 39.11-3.165l.154 1.994c-13.074 1.004-26.081 2.084-39.053 3.161C444.553 187.099 397.556 191 349.5 191z" fill="#CCCFD9"/>
    <path fill-rule="evenodd" clip-rule="evenodd" d="M129 176.5V188h-8v-13.5a6 6 0 016-6h73.5a6 6 0 016 6V230h-8v-53.5H129z" fill="#E50000"/>
    <path d="M118 186h14v10h-14v-10z" fill="#FF8080"/>
    <path d="M106 208c0-8.837 7.163-16 16-16h6c8.837 0 16 7.163 16 16v124h-38V208z" fill="#192753"/>
    <path fill-rule="evenodd" clip-rule="evenodd" d="M150 218h-50v128h50V218zm-52-2v132h54V216H98z" fill="#666F8C"/>
    <path d="M98 322h53v24H98v-24zM98 304h53v2H98v-2zM98 286h53v2H98v-2zM98 268h53v2H98v-2zM98 250h53v2H98v-2zM98 232h53v2H98v-2z" fill="#666F8C"/>
    <mask id="b" maskUnits="userSpaceOnUse" x="343" y="169" width="41" height="220">
      <path d="M384 389h-41l4-220h32.5l4.5 220z" fill="#CCCFD9"/>
    </mask>
    <g mask="url(#b)">
      <path d="M384 389h-41l4-220h32.5l4.5 220z" fill="#FFE5E5"/>
      <path d="M331 169h66v24h-66v-24zM331 217h66v24h-66v-24z" fill="#E50000"/>
      <path d="M331 265h66v24h-66v-24zM331 313h66v24h-66v-24z" fill="#FF1919"/>
    </g>
    <mask id="c" maskUnits="userSpaceOnUse" x="399" y="133" width="41" height="220">
      <path d="M440 353h-41l4-220h32.5l4.5 220z" fill="#CCCFD9"/>
    </mask>
    <g mask="url(#c)">
      <path d="M440 353h-41l4-220h32.5l4.5 220z" fill="#FFE5E5"/>
      <path d="M387 133h66v24h-66v-24zM387 181h66v24h-66v-24zM387 229h66v24h-66v-24z" fill="#E50000"/>
      <path d="M387 277h66v24h-66v-24z" fill="#FF1919"/>
    </g>
    <path d="M172 226l290 20v102H172V226z" fill="#192753"/>
    <path d="M423 88a7 7 0 017-7h43a7 7 0 110 14h-43a7 7 0 01-7-7zM409 104a3 3 0 013-3h40a3 3 0 110 6h-40a3 3 0 01-3-3zM399 116a3 3 0 013-3h40a3 3 0 110 6h-40a3 3 0 01-3-3zM408 128a3 3 0 013-3h28a3 3 0 110 6h-28a3 3 0 01-3-3zM428 95h24c-2.941.919-2.941 5.081 0 6h-24c2.941-.919 2.941-5.081 0-6zM412 107h24c-2.941.919-2.941 5.081 0 6h-24c2.941-.919 2.941-5.081 0-6zM412 119h24c-2.941.919-2.941 5.081 0 6h-24c2.941-.919 2.941-5.081 0-6zM363 142a4 4 0 014-4h49a4 4 0 010 8h-49a4 4 0 01-4-4zM360 154a3 3 0 013-3h30a3 3 0 110 6h-30a3 3 0 01-3-3zM348 164a3 3 0 013-3h28a3 3 0 110 6h-28a3 3 0 01-3-3zM369 146h24c-2.576.671-2.576 4.329 0 5h-24c2.576-.671 2.576-4.329 0-5zM363 157h16c-1.961.613-1.961 3.387 0 4h-16c1.961-.613 1.961-3.387 0-4z" fill="#CCCFD9"/>
    <path d="M184 256h32v40h-32v-40z" fill="#FFE5E5"/>
    <mask id="d" maskUnits="userSpaceOnUse" x="184" y="256" width="32" height="40">
      <path d="M184 256h32v40h-32v-40z" fill="#E5E7EC"/>
    </mask>
    <g mask="url(#d)" fill="#fff">
      <path d="M197.684 254.044l1.414 1.414-16.054 16.055-1.414-1.415 16.054-16.054zM206.694 250.205l5.754 5.754-28.742 28.741-5.753-5.753 28.741-28.742z"/>
    </g>
    <path d="M184 298h32v6h-32v-6zM224 256h32v40h-32v-40z" fill="#FFE5E5"/>
    <mask id="e" maskUnits="userSpaceOnUse" x="224" y="256" width="32" height="40">
      <path d="M224 256h32v40h-32v-40z" fill="#E5E7EC"/>
    </mask>
    <g mask="url(#e)" fill="#fff">
      <path d="M237.684 254.044l1.414 1.414-16.054 16.055-1.414-1.415 16.054-16.054zM246.694 250.205l5.754 5.754-28.742 28.741-5.753-5.753 28.741-28.742z"/>
    </g>
    <path d="M224 298h32v6h-32v-6zM264 256h32v40h-32v-40z" fill="#FFE5E5"/>
    <mask id="f" maskUnits="userSpaceOnUse" x="264" y="256" width="32" height="40">
      <path d="M264 256h32v40h-32v-40z" fill="#E5E7EC"/>
    </mask>
    <g mask="url(#f)" fill="#fff">
      <path d="M277.684 254.044l1.414 1.414-16.054 16.055-1.414-1.415 16.054-16.054zM286.694 250.205l5.754 5.754-28.742 28.741-5.753-5.753 28.741-28.742z"/>
    </g>
    <path d="M264 298h32v6h-32v-6zM304 256h32v40h-32v-40z" fill="#FFE5E5"/>
    <mask id="g" maskUnits="userSpaceOnUse" x="304" y="256" width="32" height="40">
      <path d="M304 256h32v40h-32v-40z" fill="#E5E7EC"/>
    </mask>
    <g mask="url(#g)" fill="#fff">
      <path d="M317.684 254.044l1.414 1.414-16.054 16.055-1.414-1.415 16.054-16.054zM326.694 250.205l5.754 5.754-28.742 28.741-5.753-5.753 28.741-28.742z"/>
    </g>
    <path d="M304 298h32v6h-32v-6z" fill="#FFE5E5"/>
    <path d="M172 321h211v4H172v-4zM172 330h211v4H172v-4z" fill="#fff"/>
    <path d="M383 274h104v74H383v-74z" fill="#666F8C"/>
    <path d="M395 286h24v24h-24v-24z" fill="#FFE5E5"/>
    <mask id="h" maskUnits="userSpaceOnUse" x="395" y="286" width="24" height="24">
      <path d="M395 286h24v24h-24v-24z" fill="#E5E7EC"/>
    </mask>
    <g mask="url(#h)" fill="#fff">
      <path d="M406.684 282.044l1.414 1.414-16.054 16.055-1.414-1.415 16.054-16.054zM415.694 278.205l5.754 5.754-28.742 28.741-5.753-5.753 28.741-28.742z"/>
    </g>
    <path d="M423 286h24v24h-24v-24z" fill="#FFE5E5"/>
    <mask id="i" maskUnits="userSpaceOnUse" x="423" y="286" width="24" height="24">
      <path d="M423 286h24v24h-24v-24z" fill="#E5E7EC"/>
    </mask>
    <g mask="url(#i)" fill="#fff">
      <path d="M434.684 282.044l1.414 1.414-16.054 16.055-1.414-1.415 16.054-16.054zM443.694 278.205l5.754 5.754-28.742 28.741-5.753-5.753 28.741-28.742z"/>
    </g>
    <path d="M411 332h12v8h-12v-8zM451 286h24v24h-24v-24z" fill="#FFE5E5"/>
    <mask id="j" maskUnits="userSpaceOnUse" x="451" y="286" width="24" height="24">
      <path d="M451 286h24v24h-24v-24z" fill="#E5E7EC"/>
    </mask>
    <g mask="url(#j)" fill="#fff">
      <path d="M463.055 282l1.414 1.414-16.055 16.055-1.414-1.414L463.055 282zM471.694 278.205l5.754 5.754-28.742 28.741-5.753-5.753 28.741-28.742z"/>
    </g>
    <path fill-rule="evenodd" clip-rule="evenodd" d="M410 260a4 4 0 014-4h55a4 4 0 014 4v14h-4v-14h-55v14h-4v-14z" fill="#E50000"/>
    <path d="M467 264a2 2 0 012-2h4a2 2 0 012 2v10h-8v-10zM404 266a2 2 0 012-2h12a2 2 0 110 4h-12a2 2 0 01-2-2zM408 268h8v6h-8v-6z" fill="#666F8C"/>
    <path d="M377 273a2 2 0 114 0v75h-4v-75z" fill="#E50000"/>
    <path d="M375 278h8v2h-8v-2zM375 342h8v2h-8v-2z" fill="#FFE5E5"/>
    <path d="M429 332h12v16h-12v-16z" fill="#E50000"/>
    <path d="M536 304a2 2 0 012-2h28a2 2 0 012 2v22a2 2 0 01-2 2h-28a2 2 0 01-2-2v-22z" fill="#000E3A"/>
    <path d="M561.268 313.798l-5.213-2.646c-.044-.038-.089-.073-.133-.109a.311.311 0 00-.023-.028l-2.68-5.281c-.497-.979-1.894-.979-2.391 0l-1.187 2.34a.67.67 0 01-.806.334l-2.538-.829c-1.043-.341-2.031.647-1.691 1.691l.825 2.526a.669.669 0 01-.334.805l-2.363 1.2c-.979.497-.979 1.894 0 2.39l2.306 1.171a.67.67 0 01.334.806l-.821 2.516c-.34 1.043.648 2.03 1.691 1.69l2.566-.838a.669.669 0 01.805.334l1.217 2.397c.497.978 1.894.978 2.391 0l1.204-2.372a.67.67 0 01.806-.334l2.482.811c1.043.341 2.031-.647 1.691-1.69l-.816-2.498a.67.67 0 01.334-.806l2.346-1.191c.976-.495.976-1.893-.002-2.389z" fill="#fff"/>
    <path d="M559.756 308.012l-2.735 8.374c-1.177 3.608-5.73 4.815-8.48 2.201l-.103-.101a9.715 9.715 0 01-.101-.103c-2.614-2.751-1.407-7.303 2.201-8.481l8.373-2.735a.67.67 0 01.845.845z" fill="red"/>
    <path d="M552.05 320.381a5.467 5.467 0 01-3.996-1.73 5.484 5.484 0 01-1.34-5.152 5.593 5.593 0 013.702-3.969l8.374-2.735a1.057 1.057 0 011.079.259c.284.284.383.698.259 1.08l-2.735 8.373a5.591 5.591 0 01-3.968 3.702 5.588 5.588 0 01-1.375.172zm7.073-12.857a.274.274 0 00-.09.015l-8.374 2.735a4.813 4.813 0 00-3.187 3.417 4.708 4.708 0 001.242 4.519l.096.094a4.713 4.713 0 004.423 1.148 4.814 4.814 0 003.417-3.187l2.735-8.374a.273.273 0 00-.068-.284.277.277 0 00-.194-.083z" fill="#fff"/>
    <path d="M552.002 317.457a2.457 2.457 0 100-4.914 2.457 2.457 0 000 4.914z" fill="#fff"/>
    <path d="M510 330h60v9a1 1 0 01-1 1h-58a1 1 0 01-1-1v-9z" fill="#333F66"/>
    <mask id="k" maskUnits="userSpaceOnUse" x="510" y="330" width="60" height="10">
      <path d="M510 330h60v9a1 1 0 01-1 1h-58a1 1 0 01-1-1v-9z" fill="#333F66"/>
    </mask>
    <g mask="url(#k)" fill="#E5E7EC">
      <path d="M563 341a9 9 0 01-9 9 9 9 0 01-9-9 9 9 0 019-9 9 9 0 019 9zM531 341a9 9 0 01-9 9 9 9 0 01-9-9 9 9 0 019-9 9 9 0 019 9z"/>
    </g>
    <path d="M561 341a7 7 0 11-14 0 7 7 0 0114 0z" fill="#fff"/>
    <path fill-rule="evenodd" clip-rule="evenodd" d="M554 345a4 4 0 100-8 4 4 0 000 8zm0 3a7 7 0 100-14 7 7 0 000 14z" fill="#000E3A"/>
    <path d="M529 341a7 7 0 11-14 0 7 7 0 0114 0z" fill="#fff"/>
    <path fill-rule="evenodd" clip-rule="evenodd" d="M522 345a4 4 0 100-8 4 4 0 000 8zm0 3a7 7 0 100-14 7 7 0 000 14z" fill="#000E3A"/>
    <path d="M520.025 311.064a1.999 1.999 0 011.767-1.064H532a2 2 0 012 2v18h-24l10.025-18.936z" fill="#333F66"/>
    <path d="M522.176 313H530v12h-14l6.176-12z" fill="#FFE5E5"/>
    <rect y="348" width="632" height="2" rx="1" fill="#000720"/>
    <path fill-rule="evenodd" clip-rule="evenodd" d="M30.162 294c0 .579-.062 1.144-.182 1.688 4.475.038 8.09 3.605 8.09 8a7.86 7.86 0 01-.239 1.927c3.544.872 6.169 4.016 6.169 7.76 0 3.744-2.625 6.888-6.169 7.76a7.86 7.86 0 01.239 1.927c0 4.419-3.655 8-8.163 8a8.224 8.224 0 01-5.42-2.018V348h-4.081v-19.866a8.21 8.21 0 01-6.313 2.928c-4.508 0-8.163-3.581-8.163-8 0-.664.083-1.31.239-1.927-3.544-.872-6.169-4.016-6.169-7.76 0-3.744 2.625-6.888 6.169-7.76a7.862 7.862 0 01-.239-1.927c0-4.395 3.615-7.962 8.09-8a7.874 7.874 0 01-.182-1.688c0-4.418 3.654-8 8.162-8 4.508 0 8.162 3.582 8.162 8zM619.42 300.968c0 .504-.057.996-.165 1.47 4.067.033 7.354 3.14 7.354 6.967a6.56 6.56 0 01-.217 1.679c3.222.76 5.608 3.498 5.608 6.759s-2.386 5.999-5.608 6.758c.142.538.217 1.1.217 1.679 0 3.848-3.322 6.968-7.421 6.968-1.891 0-3.617-.664-4.927-1.758V348h-3.71v-17.303c-1.361 1.557-3.427 2.551-5.739 2.551-4.099 0-7.421-3.12-7.421-6.968 0-.579.075-1.141.217-1.679-3.222-.759-5.608-3.497-5.608-6.758s2.386-5.999 5.608-6.759a6.56 6.56 0 01-.217-1.679c0-3.827 3.287-6.934 7.354-6.967a6.61 6.61 0 01-.165-1.47c0-3.848 3.322-6.968 7.42-6.968s7.42 3.12 7.42 6.968z" fill="#666F8C"/>
    <path fill="#666F8C" d="M68 311h3v37h-3z"/>
    <path d="M86 327c0 9.113-7.387 12-16.5 12S53 336.113 53 327s16.5-15 16.5-21c0 6 16.5 11.887 16.5 21z" fill="#666F8C"/>
  </g>
  <defs>
    <clipPath id="clip0">
      <path fill="#fff" d="M0 0h632v350H0z"/>
    </clipPath>
  </defs>
</svg>
