<svg width="24" height="24" viewBox="0 0 24 24" fill="none" xmlns="http://www.w3.org/2000/svg">
<path fill-rule="evenodd" clip-rule="evenodd" d="M2.98065 3.7963C3.62102 3.31602 4.51709 3.3797 5.0831 3.94571L7.4737 6.33632C8.41592 7.27854 8.41592 8.80617 7.47371 9.74839L6.76705 10.4551L12.8678 16.5558L13.5745 15.8491C14.5167 14.9069 16.0443 14.9069 16.9866 15.8491L20.1059 18.9685C20.7341 19.5967 20.7341 20.6151 20.1059 21.2432L18.0279 23.3213C17.4936 23.8556 16.7046 24.1362 15.9056 23.9345C14.0646 23.4697 9.54686 21.9435 5.06101 17.4576C0.800039 13.1966 0.0974905 8.94643 0.00393963 7.19612C-0.037189 6.42661 0.354336 5.76605 0.89868 5.35779L2.98065 3.7963ZM3.94574 5.08307L1.86377 6.64456C1.67406 6.78684 1.60227 6.96352 1.61012 7.11027C1.68784 8.56449 2.28175 12.4036 6.19837 16.3203C10.426 20.5479 14.6569 21.9603 16.2994 22.3749C16.4845 22.4217 16.7071 22.3673 16.8905 22.1839L18.9686 20.1059L15.8492 16.9865C15.5351 16.6724 15.0259 16.6724 14.7118 16.9865L14.0052 17.6932C13.377 18.3213 12.3586 18.3213 11.7304 17.6932L5.62969 11.5924C5.00154 10.9643 5.00154 9.94585 5.62968 9.3177L6.33634 8.61104C6.65042 8.29696 6.65041 7.78775 6.33634 7.47368L3.94574 5.08307Z" fill="#000F40"/>
<path fill-rule="evenodd" clip-rule="evenodd" d="M11.2593 0.804235C11.2593 0.360068 11.6194 1.21469e-10 12.0635 1.21469e-10V0.804235C12.0635 0 12.0632 -1.43687e-07 12.0635 1.21469e-10L12.0648 8.62972e-07L12.0665 4.26644e-06L12.0713 2.3393e-05L12.086 0.000143665C12.0982 0.000272805 12.1149 0.000516608 12.136 0.000975357C12.1782 0.00189266 12.238 0.00367028 12.3137 0.00711262C12.4651 0.0139944 12.6807 0.0275474 12.9478 0.054256C13.4812 0.107593 14.2243 0.213841 15.0734 0.42613C16.7625 0.848404 18.9263 1.70419 20.6746 3.4525C22.2363 5.0142 22.9864 7.09471 23.3534 8.71971C23.5388 9.5411 23.6314 10.2687 23.6778 10.7925C23.7011 11.0548 23.7129 11.2673 23.7188 11.4164C23.7218 11.491 23.7233 11.5498 23.7241 11.5912C23.7245 11.6119 23.7247 11.6282 23.7248 11.64L23.7249 11.6542L23.725 11.6587L23.725 11.6603C23.725 11.6605 23.725 11.6614 22.9207 11.6614H23.725C23.725 12.1056 23.3649 12.4656 22.9207 12.4656C22.4769 12.4656 22.117 12.1061 22.1165 11.6623L22.1164 11.655L22.1159 11.6219C22.1154 11.5912 22.1141 11.5436 22.1116 11.4807C22.1066 11.3549 22.0964 11.1684 22.0756 10.9344C22.0341 10.4655 21.9508 9.81081 21.7844 9.07399C21.4476 7.58258 20.7903 5.84298 19.5372 4.58986C18.0686 3.12122 16.2112 2.36854 14.6833 1.98658C13.924 1.79675 13.2597 1.70194 12.7878 1.65474C12.5522 1.63119 12.3657 1.61961 12.2407 1.61392C12.1782 1.61108 12.1311 1.60972 12.101 1.60907L12.0689 1.60852L12.0635 1.60847C12.0634 1.60847 12.0637 1.60847 12.0635 1.60847M11.2593 0.804235C11.2593 1.24825 11.6196 1.60822 12.0635 1.60847L11.2593 0.804235ZM10.4551 4.82541C10.4551 4.38124 10.8151 4.02118 11.2593 4.02118V4.82541C11.2593 4.02118 11.2591 4.02118 11.2593 4.02118L11.2618 4.02118L11.2655 4.02119L11.2768 4.02127L11.314 4.02181C11.3452 4.0224 11.3891 4.02354 11.4444 4.02573C11.555 4.03012 11.7117 4.03873 11.9051 4.05566C12.2909 4.08943 12.8274 4.15673 13.437 4.29145C14.6407 4.55746 16.2067 5.10321 17.4367 6.24709C18.672 7.39604 19.3283 8.96525 19.6788 10.1822C19.8567 10.7998 19.9622 11.3494 20.0235 11.7459C20.0542 11.9446 20.074 12.1062 20.0863 12.2201C20.0924 12.2771 20.0967 12.3223 20.0995 12.3543L20.1027 12.3925L20.1035 12.4039L20.1038 12.4076L20.1039 12.409C20.1039 12.4092 20.104 12.41 19.3017 12.4656L20.104 12.41C20.1347 12.8531 19.8004 13.2372 19.3573 13.268C18.9145 13.2986 18.5307 12.9649 18.4994 12.5223C18.4994 12.5219 18.4994 12.5216 18.4994 12.5213M18.4994 12.5213L18.4991 12.5179L18.4972 12.4947C18.4952 12.4728 18.492 12.4382 18.4871 12.3923C18.4772 12.3005 18.4605 12.1636 18.4339 11.9916C18.3806 11.6467 18.2883 11.1658 18.1332 10.6274C17.8178 9.53216 17.2677 8.28654 16.3413 7.42491C15.4094 6.5582 14.1606 6.09865 13.0899 5.86202C12.5623 5.74541 12.0967 5.68705 11.7648 5.658C11.5993 5.64351 11.4682 5.63641 11.3807 5.63294C11.337 5.63121 11.3042 5.63038 11.2836 5.62999L11.2619 5.62967L11.2593 5.62965" fill="#000F40"/>
</svg>
