<svg width="100%" height="100%" viewBox="0 0 70 70" fill="none" xmlns="http://www.w3.org/2000/svg">
<rect width="70" height="70" fill="#000F40"/>
<rect opacity="0.2" width="70" height="70" rx="24" fill="#E5EBFF"/>
<path fill-rule="evenodd" clip-rule="evenodd" d="M35 22.4853C34.2189 21.7042 32.9526 21.7042 32.1716 22.4853L28.9896 25.6672L33.2322 27.0815L35 25.3137C35.781 24.5326 35.781 23.2663 35 22.4853ZM47.7279 35.2132C48.509 35.9943 48.509 37.2606 47.7279 38.0417L44.5459 41.2236L43.1317 36.981L44.8995 35.2132C45.6805 34.4322 46.9469 34.4322 47.7279 35.2132Z" fill="#FF0000"/>
<path fill-rule="evenodd" clip-rule="evenodd" d="M40.5717 33.8842C37.7472 36.7086 33.9552 39.7323 30.6639 41.7928C29.0076 42.8297 27.5688 43.5651 26.4972 43.9302C26.3841 43.9688 26.2797 44.0015 26.1839 44.0293C26.2117 43.9335 26.2444 43.8291 26.283 43.716C26.6481 42.6444 27.3835 41.2056 28.4204 39.5493C30.4809 36.258 33.5046 32.466 36.329 29.6415C39.1917 26.7789 41.0543 25.7124 42.2026 25.4302C42.7252 25.3018 43.0664 25.344 43.3099 25.4243C43.5708 25.5103 43.8586 25.687 44.1924 26.0208C44.5262 26.3546 44.7029 26.6424 44.7889 26.9033C44.8692 27.1469 44.9114 27.488 44.783 28.0107C44.5008 29.1589 43.4344 31.0215 40.5717 33.8842ZM31.2526 32.277C30.1439 33.6182 29.0786 35.0141 28.1229 36.3815C27.9056 36.2296 27.6519 36.1179 27.3679 36.0611L23.4644 35.2804C22.8087 35.1492 22.1308 35.3545 21.6579 35.8273L19.3161 38.1692L24.7806 42.0725C24.0083 43.8443 23.7853 45.2117 24.3934 45.8198C25.0015 46.4279 26.3689 46.2049 28.1407 45.4326L32.044 50.8972L34.3859 48.5553C34.8587 48.0825 35.064 47.4046 34.9328 46.7489L34.1521 42.8453C34.0953 42.5614 33.9836 42.3077 33.8317 42.0903C35.2257 41.116 36.6493 40.0279 38.0144 38.8959L43.5019 46.3022C43.8656 46.793 44.5805 46.8459 45.0125 46.414L45.5644 45.8621C46.5885 44.838 46.979 43.3403 46.5853 41.9464L44.0699 33.0403C47.7336 28.6638 47.2901 26.2901 45.6066 24.6066C43.922 22.922 41.5462 22.479 37.1641 26.1507L28.2094 23.6637C26.8199 23.2778 25.3303 23.6697 24.3106 24.6894L23.7152 25.2848C23.2827 25.7173 23.3363 26.4332 23.8284 26.7964L31.2526 32.277ZM34.9148 28.2273L35.4045 27.7377L27.6742 25.5908C27.085 25.4272 26.4598 25.5432 25.9724 25.8933L32.4598 30.6823L34.9148 28.2273ZM25.388 44.1669C25.3881 44.1668 25.3903 44.167 25.3944 44.1676C25.39 44.1672 25.388 44.1669 25.388 44.1669ZM26.0456 44.8188C26.0462 44.8229 26.0464 44.8251 26.0463 44.8252C26.0463 44.8252 26.046 44.8232 26.0456 44.8188ZM42.4877 34.7966L44.6606 42.4901C44.822 43.0612 44.7199 43.6673 44.3959 44.1493L39.6034 37.681L42.4877 34.7966ZM23.0722 37.2416L26.9757 38.0223L25.5484 40.1631L22.3997 37.914L23.0722 37.2416ZM32.1909 43.2376L32.9717 47.1411L32.2992 47.8136L30.0501 44.6648L32.1909 43.2376Z" fill="#E5EBFF"/>
</svg>
