<svg width="70" height="70" viewBox="0 0 70 70" fill="none" xmlns="http://www.w3.org/2000/svg">
<rect width="70" height="70" fill="#000F40"/>
<rect opacity="0.2" width="70" height="70" rx="24" fill="#E5EBFF"/>
<path fill-rule="evenodd" clip-rule="evenodd" d="M43 24H27C26.4477 24 26 24.4477 26 25V47C26 47.5523 26.4477 48 27 48H43C43.5523 48 44 47.5523 44 47V25C44 24.4477 43.5523 24 43 24ZM27 22C25.3431 22 24 23.3431 24 25V47C24 48.6569 25.3431 50 27 50H43C44.6569 50 46 48.6569 46 47V25C46 23.3431 44.6569 22 43 22H27Z" fill="#E5EBFF"/>
<path d="M30 21C30 20.4477 30.4477 20 31 20H39C39.5523 20 40 20.4477 40 21V25C40 25.5523 39.5523 26 39 26H31C30.4477 26 30 25.5523 30 25V21Z" fill="#2E3B66"/>
<path fill-rule="evenodd" clip-rule="evenodd" d="M32 22V24H38V22H32ZM31 20C30.4477 20 30 20.4477 30 21V25C30 25.5523 30.4477 26 31 26H39C39.5523 26 40 25.5523 40 25V21C40 20.4477 39.5523 20 39 20H31Z" fill="#E5EBFF"/>
<path fill-rule="evenodd" clip-rule="evenodd" d="M32 35H29V38H32V35ZM41 35H35V38H41V35Z" fill="#FF0000"/>
<path fill-rule="evenodd" clip-rule="evenodd" d="M29 29H32V32H29V29ZM35 29H41V32H35V29ZM29 41H32V44H29V41ZM35 41H41V44H35V41Z" fill="#E5EBFF"/>
</svg>
