<svg width="100%" height="100%" viewBox="0 0 70 70" fill="none" xmlns="http://www.w3.org/2000/svg">
<rect width="70" height="70" fill="#000F40"/>
<rect opacity="0.2" width="70" height="70" rx="24" fill="#E5EBFF"/>
<path fill-rule="evenodd" clip-rule="evenodd" d="M35 22.6671C35.7072 23.2456 36.6618 23.9677 37.807 24.691C39.8912 26.0073 42.737 27.4107 45.9472 27.856C45.6623 32.8983 44.2465 37.8101 42.2354 41.5535C41.1073 43.6533 39.8322 45.3103 38.5389 46.4191C37.2435 47.5297 36.0431 48 35 48C33.9569 48 32.7565 47.5297 31.4611 46.4191C30.1678 45.3103 28.8927 43.6533 27.7646 41.5535C25.7535 37.8101 24.3377 32.8983 24.0528 27.856C27.263 27.4107 30.1088 26.0073 32.193 24.691C33.3382 23.9677 34.2929 23.2456 35 22.6671ZM22.0578 27.9999C22.0196 27.3346 22 26.6673 22 26C29 26 35 20 35 20C35 20 41 26 48 26C48 26.6673 47.9804 27.3346 47.9422 27.9999C47.2938 39.2975 41.2889 50 35 50C28.7111 50 22.7062 39.2975 22.0578 27.9999Z" fill="#E5EBFF"/>
<path fill-rule="evenodd" clip-rule="evenodd" d="M32.5606 39.3388L32.5355 39.3639L29 35.8284L31.1213 33.7071L34.0962 36.682L39.7781 31L41.8995 33.1213L34.1213 40.8995L32.5606 39.3388Z" fill="#FF0000"/>
</svg>
