<svg width="70" height="70" viewBox="0 0 70 70" fill="none" xmlns="http://www.w3.org/2000/svg">
<rect width="70" height="70" fill="#000F40"/>
<rect opacity="0.2" width="70" height="70" rx="24" fill="#E5EBFF"/>
<path d="M42.6857 39.8351C43.3112 40.3784 43.3778 41.3258 42.8346 41.9512C42.2914 42.5767 41.344 42.6434 40.7185 42.1001L35.1325 37.2486C34.507 36.7054 34.4404 35.758 34.9836 35.1325C35.5268 34.5071 36.4742 34.4404 37.0997 34.9836L42.6857 39.8351Z" fill="#FF0000"/>
<path fill-rule="evenodd" clip-rule="evenodd" d="M34 47V47.9621C27.6176 47.4766 22.5234 42.3824 22.0379 36H23C23.5523 36 24 35.5523 24 35C24 34.4477 23.5523 34 23 34H22.0379C22.5234 27.6176 27.6176 22.5234 34 22.0379V23C34 23.5523 34.4477 24 35 24C35.5523 24 36 23.5523 36 23V22.0379C42.3824 22.5234 47.4766 27.6176 47.9621 34H47C46.4477 34 46 34.4477 46 35C46 35.5523 46.4477 36 47 36H47.9621C47.4766 42.3824 42.3824 47.4766 36 47.9621V47C36 46.4477 35.5523 46 35 46C34.4477 46 34 46.4477 34 47ZM35 50C43.2843 50 50 43.2843 50 35C50 26.7157 43.2843 20 35 20C26.7157 20 20 26.7157 20 35C20 43.2843 26.7157 50 35 50ZM35 28C34.4477 28 34 28.4477 34 29V33.2676C33.4022 33.6134 33 34.2597 33 35C33 36.1046 33.8954 37 35 37C36.1046 37 37 36.1046 37 35C37 34.2597 36.5978 33.6134 36 33.2676V29C36 28.4477 35.5523 28 35 28Z" fill="#E5EBFF"/>
</svg>
