<svg width="70" height="70" viewBox="0 0 70 70" fill="none" xmlns="http://www.w3.org/2000/svg">
<rect width="70" height="70" fill="#000F40"/>
<rect opacity="0.2" width="70" height="70" rx="24" fill="#E5EBFF"/>
<path fill-rule="evenodd" clip-rule="evenodd" d="M36.8427 22H33.1573C33.0704 22 33 22.0704 33 22.1573V23.0475C33 24.3006 32.2096 25.3279 31.1718 25.7584C30.126 26.1921 28.8442 26.0157 27.9626 25.1341L27.3328 24.5043C27.2715 24.4431 27.1722 24.4431 27.1109 24.5043L24.5044 27.1109C24.4431 27.1722 24.4431 27.2715 24.5044 27.3328L25.1341 27.9625C26.0158 28.8442 26.1922 30.126 25.7584 31.1718C25.3279 32.2096 24.3006 33 23.0475 33H22.1573C22.0704 33 22 33.0704 22 33.1573V36.8427C22 36.9296 22.0704 37 22.1573 37H23.0475C24.3006 37 25.3279 37.7904 25.7584 38.8282C26.1921 39.874 26.0157 41.1558 25.1341 42.0374L24.5043 42.6672C24.4431 42.7285 24.4431 42.8279 24.5043 42.8891L27.1108 45.4956C27.1721 45.5569 27.2715 45.5569 27.3328 45.4956L27.9625 44.8659C28.8442 43.9842 30.126 43.8078 31.1718 44.2416C32.2096 44.6721 33 45.6994 33 46.9525V47.8427C33 47.9296 33.0704 48 33.1573 48H36.8427C36.9296 48 37 47.9296 37 47.8427V46.9525C37 45.6994 37.7904 44.6721 38.8282 44.2416C39.874 43.8078 41.1558 43.9842 42.0375 44.8659L42.6673 45.4956C42.7285 45.5569 42.8279 45.5569 42.8892 45.4957L45.4957 42.8891C45.557 42.8279 45.557 42.7285 45.4957 42.6672L44.8659 42.0374C43.9843 41.1558 43.8079 39.874 44.2416 38.8282C44.6721 37.7904 45.6994 37 46.9525 37H47.8427C47.9296 37 48 36.9296 48 36.8427V33.1573C48 33.0704 47.9296 33 47.8427 33H46.9525C45.6994 33 44.6721 32.2096 44.2416 31.1718C43.8078 30.126 43.9842 28.8442 44.8659 27.9625L45.4956 27.3328C45.5569 27.2715 45.5569 27.1722 45.4956 27.1109L42.8891 24.5043C42.8278 24.4431 42.7285 24.4431 42.6672 24.5043L42.0374 25.1341C41.1558 26.0157 39.874 26.1921 38.8282 25.7584C37.7904 25.3279 37 24.3006 37 23.0475V22.1573C37 22.0704 36.9296 22 36.8427 22ZM33.1573 20C31.9658 20 31 20.9658 31 22.1573V23.0475C31 23.4282 30.7573 23.7651 30.4056 23.911C30.0536 24.0569 29.6462 23.9893 29.3768 23.7199L28.747 23.0901C27.9047 22.2478 26.539 22.2478 25.6967 23.0901L23.0902 25.6967C22.2478 26.539 22.2478 27.9047 23.0902 28.747L23.7199 29.3767C23.9893 29.6461 24.057 30.0536 23.911 30.4055C23.7651 30.7573 23.4282 31 23.0475 31H22.1573C20.9658 31 20 31.9658 20 33.1573V36.8427C20 38.0342 20.9658 39 22.1573 39H23.0475C23.4282 39 23.7651 39.2427 23.911 39.5944C24.0569 39.9464 23.9893 40.3538 23.7199 40.6232L23.0901 41.253C22.2478 42.0953 22.2478 43.461 23.0901 44.3033L25.6966 46.9099C26.539 47.7522 27.9046 47.7522 28.747 46.9099L29.3767 46.2801C29.6461 46.0107 30.0536 45.943 30.4055 46.089C30.7573 46.2349 31 46.5718 31 46.9525V47.8427C31 49.0342 31.9658 50 33.1573 50H36.8427C38.0342 50 39 49.0342 39 47.8427V46.9525C39 46.5718 39.2427 46.2349 39.5945 46.089C39.9464 45.943 40.3539 46.0107 40.6233 46.2801L41.253 46.9099C42.0954 47.7522 43.461 47.7522 44.3034 46.9099L46.9099 44.3034C47.7522 43.461 47.7522 42.0953 46.9099 41.253L46.2801 40.6232C46.0107 40.3538 45.9431 39.9464 46.089 39.5944C46.2349 39.2427 46.5718 39 46.9525 39H47.8427C49.0342 39 50 38.0342 50 36.8427V33.1573C50 31.9658 49.0342 31 47.8427 31H46.9525C46.5718 31 46.2349 30.7573 46.089 30.4055C45.943 30.0536 46.0107 29.6461 46.2801 29.3767L46.9099 28.747C47.7522 27.9047 47.7522 26.539 46.9099 25.6967L44.3033 23.0901C43.461 22.2478 42.0953 22.2478 41.253 23.0901L40.6232 23.7199C40.3538 23.9893 39.9464 24.057 39.5944 23.911C39.2427 23.7651 39 23.4282 39 23.0475V22.1573C39 20.9658 38.0342 20 36.8427 20H33.1573Z" fill="#E5EBFF"/>
<path fill-rule="evenodd" clip-rule="evenodd" d="M35 39C37.2091 39 39 37.2091 39 35C39 32.7909 37.2091 31 35 31C32.7909 31 31 32.7909 31 35C31 37.2091 32.7909 39 35 39ZM35 41C38.3137 41 41 38.3137 41 35C41 31.6863 38.3137 29 35 29C31.6863 29 29 31.6863 29 35C29 38.3137 31.6863 41 35 41Z" fill="#FF0000"/>
</svg>
