<svg width="100%" height="100%" viewBox="0 0 70 70" fill="none" xmlns="http://www.w3.org/2000/svg">
<rect width="70" height="70" fill="#000F40"/>
<rect opacity="0.2" width="70" height="70" rx="24" fill="#E5EBFF"/>
<path fill-rule="evenodd" clip-rule="evenodd" d="M39 25.208V38.0828C39 38.4936 38.7568 38.8999 38.2026 39.1411C37.6335 39.3888 37.0216 39.3224 36.6052 39.0023C34.5047 37.3877 31.8565 35.671 29.3876 35.1833C29.2581 35.1578 29.1289 35.1332 29 35.1095V28.1813C29.1289 28.1576 29.2581 28.1331 29.3876 28.1075C31.8565 27.6198 34.5047 25.9031 36.6052 24.2885C37.0216 23.9684 37.6335 23.9021 38.2026 24.1498C38.7568 24.391 39 24.7972 39 25.208ZM27 28.4807V34.8101C25.1385 34.5902 23.4391 34.5444 22.1748 34.5551C22.1239 34.5555 22.0702 34.5348 22.0306 34.4972C22.0126 34.4802 22.0047 34.4661 22.002 34.4601C22.0002 34.456 22 34.4547 22 34.4509V28.84C22 28.8361 22.0002 28.8348 22.002 28.8307C22.0047 28.8247 22.0126 28.8106 22.0306 28.7936C22.0702 28.756 22.1239 28.7353 22.1748 28.7357C23.4391 28.7464 25.1385 28.7006 27 28.4807ZM20 28.84C20 27.6623 21.0142 26.7258 22.1918 26.7358C23.9046 26.7503 26.4204 26.6549 29 26.1454C30.9771 25.7549 33.3075 24.3007 35.3863 22.7029C37.54 21.0473 41 22.4915 41 25.208V28.6454H41.0001C42.6569 28.6454 44.0001 29.9885 44.0001 31.6454C44.0001 33.3022 42.6569 34.6454 41.0001 34.6454H41V38.0828C41 40.7993 37.54 42.2435 35.3863 40.588C33.5477 39.1747 31.5123 37.8739 29.6986 37.322L32.8462 44.8762C33.3951 46.1935 32.4272 47.6454 31 47.6454H28.3333C27.5259 47.6454 26.7977 47.1599 26.4872 46.4146L22.3786 36.5539C22.3153 36.5541 22.253 36.5545 22.1918 36.555C21.0142 36.5651 20 35.6285 20 34.4509V28.84ZM25 37.6454L28.3333 45.6454H31L27.6667 37.6454H25Z" fill="#E5EBFF"/>
<path d="M45.8329 27.085C45.5259 26.4609 45.9699 25.6454 46.6654 25.6454C46.8805 25.6454 47.0862 25.725 47.2355 25.8799C47.9427 26.614 50 28.9786 50 31.6454C50 34.3122 47.9427 36.6768 47.2355 37.4109C47.0862 37.5658 46.8805 37.6454 46.6654 37.6454C45.9699 37.6454 45.5259 36.8299 45.8329 36.2058C46.3819 35.0898 47 33.4357 47 31.6454C47 29.8551 46.3819 28.201 45.8329 27.085Z" fill="#FF0000"/>
</svg>