<svg width="100%" height="100%" viewBox="0 0 70 70" fill="none" xmlns="http://www.w3.org/2000/svg">
<rect width="70" height="70" fill="#000F40"/>
<rect opacity="0.2" width="70" height="70" rx="24" fill="#E5EBFF"/>
<path d="M24 45H46V49C46 49.5523 45.5523 50 45 50H25C24.4477 50 24 49.5523 24 49V45Z" fill="#FF0000"/>
<path fill-rule="evenodd" clip-rule="evenodd" d="M38 25C38 26.6569 36.6569 28 35 28C33.3431 28 32 26.6569 32 25C32 23.3431 33.3431 22 35 22C36.6569 22 38 23.3431 38 25ZM37.208 29.4873C38.862 28.6719 40 26.9688 40 25C40 22.2386 37.7614 20 35 20C32.2386 20 30 22.2386 30 25C30 26.9703 31.1396 28.6744 32.7957 29.4891C32.0124 30.8997 31.6899 33.1009 31.3902 35.1473C31.2392 36.1776 31.0941 37.1687 30.8987 38H24C22.8954 38 22 38.8954 22 40V46C22 46.5523 22.4477 47 23 47H47C47.5523 47 48 46.5523 48 46V40C48 38.8954 47.1046 38 46 38H39.1072C38.9096 37.1629 38.7633 36.1658 38.6115 35.1305L38.6115 35.1304L38.6115 35.1304C38.3117 33.0865 37.99 30.8934 37.208 29.4873ZM35 30C35.0191 30 35.0382 29.9999 35.0573 29.9997C35.1319 30.0151 35.2771 30.1052 35.5016 30.5366C35.8553 31.2161 36.1225 32.2697 36.3571 33.6396C36.4403 34.1254 36.5273 34.7126 36.6169 35.3171L36.6169 35.3172L36.6169 35.3173C36.7418 36.1603 36.8717 37.0368 37.0031 37.7184C37.0211 37.8119 37.0398 37.9059 37.0593 38H32.9462C32.9637 37.9153 32.9805 37.8307 32.9968 37.7466C33.1294 37.0601 33.2595 36.1807 33.3847 35.3342L33.3847 35.3341C33.4736 34.7336 33.5599 34.1497 33.643 33.6629C33.8777 32.2886 34.1453 31.2277 34.5003 30.5419C34.7243 30.1094 34.87 30.0162 34.9438 29.9997C34.9625 29.9999 34.9812 30 35 30ZM46 40H40H30H24V45H46V40Z" fill="#E5EBFF"/>
</svg>