<svg width="180" height="57" viewBox="0 0 180 57" fill="none" xmlns="http://www.w3.org/2000/svg">
<path d="M36.8833 30.4342H44.1193C44.9682 30.4166 46.2048 30.3949 47.1902 30.528C49.4624 30.8352 51.7747 31.8399 51.7747 34.591C51.7747 36.8991 50.4101 37.9825 48.7683 38.3316V38.4723C51.1435 38.8917 52.5081 40.1509 52.5081 42.6667C52.5081 46.7749 48.5833 47.9084 45.4086 48.0591C44.6308 48.0826 43.6362 48.0843 42.9665 48.0843H36.8841V30.4342H36.8833ZM41.9509 44.7296H44.013C45.7611 44.7296 47.4732 44.2038 47.4732 42.5252C47.4732 40.9529 46.1797 40.3945 43.7693 40.3945H41.9509V44.7296ZM42.0547 37.2817H43.5935C45.6907 37.2817 46.9499 36.8631 46.9499 35.501C46.9499 34.4177 46.1797 33.7881 44.1185 33.7881H42.0547V37.2817Z" fill="#005EA3"/>
<path d="M11.8139 48.4258C4.16009 48.4258 0 42.9027 0 35.9824C0 28.9917 4.89433 23.2601 12.9315 23.2601C15.0639 23.2601 16.9167 23.5398 18.5233 24.3786V28.8887C16.3909 27.6304 14.6796 27.3859 13.1073 27.3859C7.6546 27.3859 5.5214 31.4053 5.5214 35.6358C5.5214 40.3518 8.17954 44.0924 12.6159 44.0924C14.575 44.0924 16.1833 43.6378 18.0712 42.6256L19.399 46.1905C16.5675 47.9712 14.1555 48.4258 11.8139 48.4258ZM98.1452 48.4258C92.4815 48.4258 89.5814 44.2674 89.5814 39.3036C89.5814 33.7462 93.4267 30.0767 98.5655 30.0767C100.835 30.0767 102.025 30.5296 102.968 31.0897V35.0748C101.71 34.1656 100.695 33.85 99.2981 33.85C96.3971 33.85 94.6139 35.9824 94.6139 39.0599C94.6139 41.8202 95.9768 44.5127 99.2277 44.5127C100.135 44.5127 101.36 44.1627 102.654 43.498L103.842 46.7464C102.375 47.7267 99.9276 48.4258 98.1452 48.4258ZM113.804 34.4092V48.0767H108.77V34.4092H103.878V30.4241H119.325L118.067 34.4092H113.804ZM137.988 32.4879C137.988 38.6397 137.747 41.8546 136.626 43.3213C136.068 44.0573 135.193 44.5453 134.285 44.6852L135.682 48.4258C136.835 48.3915 138.62 47.9026 139.842 46.6777C141.449 45.1054 141.975 43.1129 142.219 41.0148C142.43 39.2333 142.568 37.1352 142.568 35.2841V34.4092H146.505V48.0767H151.538V30.4241H137.988V32.4879ZM23.873 40.6289C23.9785 43.0074 26.2155 44.4767 28.5547 44.4767C30.2693 44.4767 31.562 44.1619 33.5554 43.2184L34.6722 46.3989C32.225 47.9369 29.8499 48.4258 27.7175 48.4258C21.425 48.4258 18.8397 43.9518 18.8397 39.3036C18.8397 34.3406 21.8101 30.0767 27.0887 30.0767C31.9127 30.0767 35.2674 33.6415 35.2674 39.0943V40.6297H23.873V40.6289ZM26.9481 33.747C24.9187 33.747 23.7667 35.5638 23.7667 37.1729H30.1287C30.024 35.4926 29.0796 33.747 26.9481 33.747ZM58.5452 40.6289C58.649 43.0074 60.8861 44.4767 63.2286 44.4767C64.9407 44.4767 66.235 44.1619 68.2284 43.2184L69.3444 46.3989C66.8981 47.9369 64.5212 48.4258 62.3897 48.4258C56.0972 48.4258 53.5119 43.9518 53.5119 39.3036C53.5119 34.3406 56.4823 30.0767 61.7618 30.0767C66.5824 30.0767 69.9396 33.6415 69.9396 39.0943V40.6297H58.5452V40.6289ZM61.6211 33.747C59.5926 33.747 58.4406 35.5638 58.4406 37.1729H64.8017C64.697 35.4926 63.751 33.747 61.6211 33.747ZM128.971 46.5019C127.784 47.5869 126.386 48.4258 124.115 48.4258C120.757 48.4258 118.242 46.1888 118.242 42.6926C118.242 38.9528 121.247 37.0297 125.721 36.8907L128.693 36.7852V36.437C128.693 34.5851 127.191 33.8492 125.441 33.8492C123.66 33.8492 122.121 34.3741 120.968 35.074L119.43 31.9981C121.842 30.4233 124.148 30.0759 126.56 30.0759C131.21 30.0759 133.691 31.9269 133.691 36.5776V48.0759H129.777L128.971 46.5019ZM126.455 40.1768C124.289 40.2479 123.274 40.9813 123.274 42.3083C123.274 43.673 124.219 44.5119 125.931 44.5119C127.26 44.5119 128.204 44.0907 128.656 43.7073V40.1081L126.455 40.1768ZM76.5795 47.6907V55.136L71.5479 56.6757V30.4241H75.7758L76.3351 32.0332C77.6286 31.0186 79.1305 30.0767 81.0879 30.0767C85.1434 30.0767 88.3239 33.1518 88.3239 38.7443C88.3239 43.9894 85.1794 48.4258 79.9702 48.4258C78.6776 48.4258 77.4887 48.1805 76.5795 47.6907ZM76.5795 35.7371V44.0916C77.1396 44.4775 77.8387 44.7915 78.7487 44.7915C82.1738 44.7915 83.2914 41.6813 83.2914 38.6748C83.2914 35.0388 82.1026 33.747 80.0757 33.747C78.7487 33.747 77.174 34.8304 76.5795 35.7371Z" fill="#005EA3"/>
<path d="M158.677 36.1715V29.6681L153.644 31.2086V48.0892H160.074C164.759 48.0892 169.127 46.8317 169.127 41.9734C169.127 37.8485 165.598 36.1707 161.263 36.1707H158.677V36.1715ZM158.677 44.5947V39.666H160.356C162.137 39.666 164.096 39.9448 164.096 42.042C164.096 44.1058 162.417 44.5947 160.426 44.5947H158.677Z" fill="#005EA3"/>
<path d="M160.742 3.3211C159.29 3.98752 158.072 4.70166 157.06 5.43338C155.999 6.20278 155.021 7.16055 154.75 8.21627C154.478 9.2678 154.865 10.578 155.42 11.7644C155.96 12.8879 156.679 14.1002 157.62 15.3861C157.584 15.0186 157.595 14.6686 157.667 14.343C157.892 13.3165 158.763 12.3948 159.713 11.6622C160.403 11.1306 161.2 10.6124 162.124 10.1218C163.606 9.32975 165.401 8.60389 167.566 8.00362H167.567C169.735 7.40166 171.651 7.09775 173.328 7.01403C173.363 5.97171 173.313 5.01896 173.199 4.15496C173.041 2.96613 172.679 1.75134 171.901 1.04222C171.651 0.816173 171.346 0.626964 171.006 0.473755C169.436 0.648732 167.695 0.982778 165.769 1.51859H165.767C163.841 2.05273 162.177 2.66306 160.742 3.3211Z" fill="url(#paint0_linear)"/>
<path d="M179.893 9.2034C180.038 7.61772 180.028 6.21205 179.913 4.97214C179.794 3.66693 179.433 2.34498 178.66 1.58312C177.887 0.822093 176.555 0.501442 175.247 0.390093C174.006 0.282093 172.592 0.296326 171.005 0.474651C171.345 0.627861 171.651 0.81707 171.9 1.04312C172.678 1.75223 173.039 2.96702 173.199 4.15586C173.313 5.01986 173.362 5.97261 173.327 7.01493C173.274 8.69437 173.002 10.6116 172.439 12.7875V12.7883C171.877 14.9659 171.183 16.7751 170.416 18.272C171.3 18.8213 172.145 19.2541 172.95 19.5865C174.061 20.0436 175.292 20.3358 176.296 20.0168C176.62 19.9163 176.933 19.7447 177.237 19.5254C177.869 18.0803 178.45 16.4101 178.949 14.4795C179.452 12.533 179.749 10.7799 179.893 9.2034Z" fill="url(#paint1_linear)"/>
<path d="M165.208 22.8625C163.922 21.9499 162.563 20.8164 161.143 19.4149C159.712 18.0117 158.554 16.6621 157.62 15.3871C157.584 15.0195 157.595 14.6696 157.667 14.3439C157.892 13.3175 158.763 12.3957 159.713 11.6631C160.403 11.1315 161.2 10.6133 162.124 10.1227C163.033 11.5342 164.255 13.0378 165.857 14.6126C167.46 16.1899 168.986 17.383 170.416 18.2712C171.301 18.8204 172.146 19.2533 172.951 19.5857C174.062 20.0428 175.293 20.335 176.297 20.016C176.621 19.9155 176.934 19.7439 177.238 19.5245C176.603 20.9788 175.917 22.2003 175.209 23.2208C174.455 24.3092 173.505 25.3164 172.448 25.6094C171.391 25.9041 170.057 25.529 168.852 24.984C167.719 24.4741 166.5 23.7784 165.208 22.8625Z" fill="url(#paint2_linear)"/>
<defs>
<linearGradient id="paint0_linear" x1="155.011" y1="10.3067" x2="179.807" y2="3.43076" gradientUnits="userSpaceOnUse">
<stop stop-color="#E22428"/>
<stop offset="0.3412" stop-color="#E02428"/>
<stop offset="0.4641" stop-color="#D92226"/>
<stop offset="0.5517" stop-color="#CE2024"/>
<stop offset="0.6225" stop-color="#BD1D21"/>
<stop offset="0.6832" stop-color="#A7191C"/>
<stop offset="0.736" stop-color="#8C1517"/>
<stop offset="0.7747" stop-color="#731012"/>
</linearGradient>
<linearGradient id="paint1_linear" x1="176.848" y1="0.492094" x2="170.207" y2="25.3126" gradientUnits="userSpaceOnUse">
<stop stop-color="#0E7DC1"/>
<stop offset="0.1572" stop-color="#0E7BBE"/>
<stop offset="0.2887" stop-color="#0D74B3"/>
<stop offset="0.4111" stop-color="#0C69A2"/>
<stop offset="0.5279" stop-color="#0A5989"/>
<stop offset="0.6407" stop-color="#08446A"/>
<stop offset="0.7506" stop-color="#052B43"/>
<stop offset="0.8561" stop-color="#020D16"/>
<stop offset="0.8956" stop-color="#010103"/>
</linearGradient>
<linearGradient id="paint2_linear" x1="159.334" y1="11.4384" x2="174.416" y2="23.8747" gradientUnits="userSpaceOnUse">
<stop stop-color="#595959"/>
<stop offset="0.1078" stop-color="#737373"/>
<stop offset="0.2876" stop-color="#979797"/>
<stop offset="0.4682" stop-color="#B4B4B4"/>
<stop offset="0.6477" stop-color="#C8C8C8"/>
<stop offset="0.8256" stop-color="#D5D5D5"/>
<stop offset="1" stop-color="#D9D9D9"/>
</linearGradient>
</defs>
</svg>
