<svg width="220" height="220" viewBox="0 0 220 220" fill="none" xmlns="http://www.w3.org/2000/svg">
<path d="M0 0H220V220H0V0Z" fill="#000F40"/>
<rect x="91" y="82" width="108" height="108" stroke="#333F66" stroke-width="2"/>
<rect x="1" y="133" width="148" height="86" stroke="#333F66" stroke-width="2"/>
<rect x="61" y="38" width="144" height="181" stroke="#333F66" stroke-width="2"/>
<rect x="21" y="53" width="158" height="166" stroke="#333F66" stroke-width="2"/>
<rect x="13" y="21" width="158" height="157" stroke="#333F66" stroke-width="2"/>
<rect x="65" y="1" width="114" height="183" stroke="#333F66" stroke-width="2"/>
<path fill-rule="evenodd" clip-rule="evenodd" d="M220 197H0V208H10V220H34V208H98V220H122V208H186V220H210V208H220V197Z" fill="#E5E7EC"/>
<rect x="162" y="37" width="44" height="160" fill="white"/>
<rect x="206" y="185" width="6" height="44" transform="rotate(90 206 185)" fill="#192753"/>
<rect x="206" y="179" width="6" height="44" transform="rotate(90 206 179)" fill="#FF8080"/>
<rect x="206" y="173" width="6" height="44" transform="rotate(90 206 173)" fill="#FFCCCC"/>
<rect x="174" y="81" width="15" height="2" rx="1" fill="#192753"/>
<rect x="174" y="85" width="19" height="2" rx="1" fill="#192753"/>
<rect x="174" y="89" width="10" height="2" rx="1" fill="#192753"/>
<circle cx="184" cy="59" r="12" fill="#FF0000"/>
<mask id="mask0" mask-type="alpha" maskUnits="userSpaceOnUse" x="172" y="47" width="24" height="24">
<circle cx="184" cy="59" r="12" fill="#FF0000"/>
</mask>
<g mask="url(#mask0)">
<path d="M182.667 45.6667L178.654 56.6925L181.661 57.7869L178.377 66.808L189.771 57.3337L185.762 55.8744L191.688 48.9501L182.667 45.6667Z" fill="white"/>
</g>
<rect x="12" y="117" width="134" height="80" fill="white"/>
<rect x="8" y="117" width="142" height="15" fill="#E5E7EC"/>
<rect x="138" y="117" width="6" height="15" fill="#192753"/>
<rect x="132" y="117" width="6" height="15" fill="#FF8080"/>
<rect x="126" y="117" width="6" height="15" fill="#FFCCCC"/>
<rect x="134" y="132" width="6" height="65" fill="#192753"/>
<rect x="128" y="132" width="6" height="65" fill="#FF8080"/>
<rect x="122" y="132" width="6" height="65" fill="#FFCCCC"/>
<rect x="20" y="179" width="15" height="2" rx="1" fill="#192753"/>
<rect x="20" y="183" width="19" height="2" rx="1" fill="#192753"/>
<rect x="20" y="187" width="10" height="2" rx="1" fill="#192753"/>
<circle cx="32" cy="152" r="12" fill="#FF0000"/>
<mask id="mask1" mask-type="alpha" maskUnits="userSpaceOnUse" x="20" y="140" width="24" height="24">
<circle cx="32" cy="152" r="12" fill="#FF0000"/>
</mask>
<g mask="url(#mask1)">
<path d="M30.6667 138.667L26.6536 149.692L29.6606 150.787L26.3772 159.808L37.7715 150.334L33.7621 148.874L39.6877 141.95L30.6667 138.667Z" fill="white"/>
</g>
<rect x="45" y="37" width="80" height="80" fill="white"/>
<rect x="41" y="37" width="88" height="15" fill="#E5E7EC"/>
<rect x="117" y="37" width="6" height="15" fill="#192753"/>
<rect x="111" y="37" width="6" height="15" fill="#FF8080"/>
<rect x="105" y="37" width="6" height="15" fill="#FFCCCC"/>
<rect x="113" y="52" width="6" height="65" fill="#192753"/>
<rect x="107" y="52" width="6" height="65" fill="#FF8080"/>
<rect x="101" y="52" width="6" height="65" fill="#FFCCCC"/>
<rect x="53" y="99" width="15" height="2" rx="1" fill="#192753"/>
<rect x="53" y="103" width="19" height="2" rx="1" fill="#192753"/>
<rect x="53" y="107" width="10" height="2" rx="1" fill="#192753"/>
<circle cx="65" cy="72" r="12" fill="#FF0000"/>
<mask id="mask2" mask-type="alpha" maskUnits="userSpaceOnUse" x="53" y="60" width="24" height="24">
<circle cx="65" cy="72" r="12" fill="#FF0000"/>
</mask>
<g mask="url(#mask2)">
<path d="M63.6667 58.6667L59.6536 69.6925L62.6606 70.7869L59.3772 79.808L70.7715 70.3337L66.7621 68.8744L72.6877 61.9501L63.6667 58.6667Z" fill="white"/>
</g>
</svg>
