<svg width="220" height="220" viewBox="0 0 220 220" fill="none" xmlns="http://www.w3.org/2000/svg">
<g clip-path="url(#clip0)">
<path d="M0 0H220V220H0V0Z" fill="#000F40"/>
<circle cx="110" cy="110" r="109" stroke="#333F66" stroke-width="2"/>
<path fill-rule="evenodd" clip-rule="evenodd" d="M15.7071 17.9498C15.3166 18.3403 15.3166 18.9735 15.7071 19.364C16.0976 19.7545 16.7308 19.7545 17.1213 19.364L21.364 15.1214C21.7545 14.7309 21.7545 14.0977 21.364 13.7072C20.9734 13.3166 20.3403 13.3166 19.9498 13.7072L15.7071 17.9498ZM69.7071 152.364C69.3166 151.974 69.3166 151.34 69.7071 150.95L73.9497 146.707C74.3403 146.317 74.9734 146.317 75.3639 146.707C75.7545 147.098 75.7545 147.731 75.3639 148.121L71.1213 152.364C70.7308 152.755 70.0976 152.755 69.7071 152.364ZM184.707 80.364C184.317 79.9735 184.317 79.3404 184.707 78.9498L188.95 74.7072C189.34 74.3167 189.973 74.3167 190.364 74.7072C190.754 75.0977 190.754 75.7309 190.364 76.1214L186.121 80.364C185.731 80.7546 185.098 80.7546 184.707 80.364ZM37.8284 175.829C38.219 175.438 38.8521 175.438 39.2426 175.829L43.4853 180.071C43.8758 180.462 43.8758 181.095 43.4853 181.485C43.0948 181.876 42.4616 181.876 42.0711 181.485L37.8284 177.243C37.4379 176.852 37.4379 176.219 37.8284 175.829ZM141.121 25.7072C140.731 25.3167 140.098 25.3167 139.707 25.7072C139.317 26.0977 139.317 26.7309 139.707 27.1214L143.95 31.364C144.34 31.7546 144.973 31.7546 145.364 31.364C145.754 30.9735 145.754 30.3404 145.364 29.9498L141.121 25.7072ZM201.707 201.707C202.098 201.317 202.731 201.317 203.121 201.707L207.364 205.95C207.754 206.34 207.754 206.974 207.364 207.364C206.973 207.755 206.34 207.755 205.95 207.364L201.707 203.121C201.317 202.731 201.317 202.098 201.707 201.707ZM182.121 136.707C181.731 136.317 181.098 136.317 180.707 136.707C180.317 137.098 180.317 137.731 180.707 138.121L184.95 142.364C185.34 142.755 185.973 142.755 186.364 142.364C186.754 141.974 186.754 141.34 186.364 140.95L182.121 136.707Z" fill="#FFCCCC"/>
<circle cx="110" cy="60" r="59" stroke="#333F66" stroke-width="2"/>
<circle cx="110" cy="160" r="59" stroke="#333F66" stroke-width="2"/>
<circle cx="60" cy="110" r="59" stroke="#333F66" stroke-width="2"/>
<circle cx="160" cy="110" r="59" stroke="#333F66" stroke-width="2"/>
<mask id="path-8-outside-1" maskUnits="userSpaceOnUse" x="100" y="94" width="64" height="62" fill="black">
<rect fill="white" x="100" y="94" width="64" height="62"/>
<path fill-rule="evenodd" clip-rule="evenodd" d="M131 152C116.088 152 104 139.912 104 125C104 110.088 116.088 98 131 98C145.912 98 158 110.088 158 125C158 125.251 157.997 125.501 157.99 125.75H158C158 129.352 157.305 131.581 156.648 133.688C155.436 137.578 154.352 141.055 158 152H144.875H131.75V151.99C131.501 151.997 131.251 152 131 152Z"/>
</mask>
<path fill-rule="evenodd" clip-rule="evenodd" d="M131 152C116.088 152 104 139.912 104 125C104 110.088 116.088 98 131 98C145.912 98 158 110.088 158 125C158 125.251 157.997 125.501 157.99 125.75H158C158 129.352 157.305 131.581 156.648 133.688C155.436 137.578 154.352 141.055 158 152H144.875H131.75V151.99C131.501 151.997 131.251 152 131 152Z" fill="#FF0000"/>
<path d="M157.99 125.75V129.75H153.879L153.991 125.641L157.99 125.75ZM158 125.75V121.75H162V125.75H158ZM156.648 133.688L152.83 132.498H152.83L156.648 133.688ZM158 152L161.795 150.735L163.55 156H158V152ZM131.75 152V156H127.75V152H131.75ZM131.75 151.99L131.641 147.991L135.75 147.879V151.99H131.75ZM108 125C108 137.703 118.297 148 131 148V156C113.879 156 100 142.121 100 125H108ZM131 102C118.297 102 108 112.297 108 125H100C100 107.879 113.879 94 131 94V102ZM154 125C154 112.297 143.703 102 131 102V94C148.121 94 162 107.879 162 125H154ZM153.991 125.641C153.997 125.428 154 125.214 154 125H162C162 125.287 161.996 125.574 161.988 125.859L153.991 125.641ZM158 129.75H157.99V121.75H158V129.75ZM152.83 132.498C153.455 130.493 154 128.732 154 125.75H162C162 129.972 161.156 132.669 160.467 134.879L152.83 132.498ZM154.205 153.265C152.315 147.593 151.542 143.548 151.502 140.247C151.46 136.847 152.209 134.488 152.83 132.498L160.467 134.879C159.875 136.778 159.476 138.102 159.501 140.149C159.527 142.296 160.037 145.462 161.795 150.735L154.205 153.265ZM144.875 148H158V156H144.875V148ZM131.75 148H144.875V156H131.75V148ZM135.75 151.99V152H127.75V151.99H135.75ZM131 148C131.214 148 131.428 147.997 131.641 147.991L131.859 155.988C131.574 155.996 131.287 156 131 156V148Z" fill="#000F40" mask="url(#path-8-outside-1)"/>
<mask id="path-10-outside-2" maskUnits="userSpaceOnUse" x="55" y="55" width="82" height="80" fill="black">
<rect fill="white" x="55" y="55" width="82" height="80"/>
<path fill-rule="evenodd" clip-rule="evenodd" d="M97 131C116.882 131 133 114.882 133 95C133 75.1177 116.882 59 97 59C77.1177 59 61 75.1177 61 95C61 95.3344 61.0046 95.6678 61.0136 96H61C61 100.803 61.9262 103.774 62.8022 106.584C64.4189 111.77 65.8644 116.407 61 131H78.5H96V130.986C96.3322 130.995 96.6656 131 97 131Z"/>
</mask>
<path fill-rule="evenodd" clip-rule="evenodd" d="M97 131C116.882 131 133 114.882 133 95C133 75.1177 116.882 59 97 59C77.1177 59 61 75.1177 61 95C61 95.3344 61.0046 95.6678 61.0136 96H61C61 100.803 61.9262 103.774 62.8022 106.584C64.4189 111.77 65.8644 116.407 61 131H78.5H96V130.986C96.3322 130.995 96.6656 131 97 131Z" fill="white"/>
<path d="M61.0136 96V100H65.1242L65.0121 95.8909L61.0136 96ZM61 96V92H57V96H61ZM62.8022 106.584L58.9834 107.775H58.9834L62.8022 106.584ZM61 131L57.2053 129.735L55.4503 135H61V131ZM96 131V135H100V131H96ZM96 130.986L96.1091 126.988L92 126.876V130.986H96ZM129 95C129 112.673 114.673 127 97 127V135C119.091 135 137 117.091 137 95H129ZM97 63C114.673 63 129 77.3269 129 95H137C137 72.9086 119.091 55 97 55V63ZM65 95C65 77.3269 79.3269 63 97 63V55C74.9086 55 57 72.9086 57 95H65ZM65.0121 95.8909C65.0041 95.5951 65 95.2981 65 95H57C57 95.3708 57.0051 95.7405 57.0151 96.1091L65.0121 95.8909ZM61 100H61.0136V92H61V100ZM66.6209 105.394C65.7769 102.686 65 100.183 65 96H57C57 101.423 58.0755 104.862 58.9834 107.775L66.6209 105.394ZM64.7947 132.265C67.2933 124.769 68.2795 119.522 68.3312 115.314C68.3841 111.005 67.4435 108.032 66.6209 105.394L58.9834 107.775C59.7775 110.322 60.3681 112.261 60.3318 115.215C60.2943 118.27 59.5711 122.638 57.2053 129.735L64.7947 132.265ZM78.5 127H61V135H78.5V127ZM96 127H78.5V135H96V127ZM92 130.986V131H100V130.986H92ZM97 127C96.7019 127 96.4049 126.996 96.1091 126.988L95.8909 134.985C96.2595 134.995 96.6293 135 97 135V127Z" fill="#000F40" mask="url(#path-10-outside-2)"/>
<circle cx="112" cy="96" r="5" fill="#000F40"/>
<circle cx="97" cy="96" r="5" fill="#000F40"/>
<circle cx="81" cy="96" r="5" fill="#000F40"/>
<path d="M105.385 175.485C106.166 174.704 107.432 174.704 108.213 175.485C108.994 176.266 108.994 177.533 108.213 178.314L106.445 180.081L102.203 178.667L105.385 175.485Z" fill="#FF0000"/>
<path d="M120.941 191.042C121.722 190.261 121.722 188.994 120.941 188.213C120.16 187.432 118.894 187.432 118.113 188.213L116.345 189.981L117.759 194.224L120.941 191.042Z" fill="#FF0000"/>
<path d="M98.2309 178.397C98.9956 177.632 100.113 177.338 101.155 177.627L110.537 180.233L105.772 184.998L97.6355 178.992L98.2309 178.397Z" fill="white" stroke="white" stroke-width="2"/>
<path d="M118.07 198.155C118.839 197.387 119.131 196.264 118.836 195.218L116.2 185.884L111.5 190.583L117.519 198.707L118.07 198.155Z" fill="white" stroke="white" stroke-width="2"/>
<path d="M95.5782 189.535C95.8147 189.298 96.1536 189.195 96.4815 189.261L100.385 190.042C101.083 190.181 101.416 190.985 101.021 191.577L99.0208 194.577L94.071 191.042L95.5782 189.535Z" fill="#FF0000" stroke="#FF0000" stroke-width="2"/>
<path d="M106.892 200.848C107.128 200.612 107.231 200.273 107.165 199.945L106.385 196.041C106.245 195.344 105.442 195.011 104.849 195.406L101.849 197.406L105.385 202.355L106.892 200.848Z" fill="#FF0000" stroke="#FF0000" stroke-width="2"/>
<path d="M114.492 187.591C111.615 190.468 107.764 193.539 104.408 195.64C102.724 196.694 101.21 197.476 100.033 197.877C99.4412 198.078 98.9887 198.165 98.6711 198.169C98.4214 198.172 98.3322 198.124 98.314 198.112C98.302 198.094 98.2548 198.005 98.2577 197.755C98.2615 197.438 98.348 196.985 98.5496 196.393C98.9508 195.216 99.732 193.702 100.786 192.019C102.887 188.662 105.958 184.811 108.835 181.934C111.731 179.039 113.755 177.809 115.177 177.459C115.863 177.291 116.396 177.33 116.836 177.475C117.285 177.622 117.702 177.903 118.113 178.314C118.524 178.725 118.804 179.142 118.952 179.59C119.097 180.03 119.136 180.564 118.967 181.249C118.618 182.672 117.388 184.695 114.492 187.591ZM98.3103 198.11C98.3103 198.11 98.3108 198.11 98.3117 198.111L98.3103 198.11ZM98.3157 198.115C98.3164 198.116 98.3168 198.116 98.3168 198.116L98.3157 198.115Z" fill="white" stroke="white" stroke-width="2"/>
<circle cx="144" cy="126" r="4" fill="white"/>
<circle cx="133" cy="126" r="4" fill="white"/>
<path d="M29 96.3578C29.1207 96.4634 29.256 96.5795 29.4049 96.7043C30.103 97.2887 31.1079 98.0667 32.341 98.8455C34.5669 100.251 37.6149 101.71 40.9861 101.962C40.8278 107.476 39.3254 112.915 37.1163 117.027C35.9478 119.202 34.6018 120.968 33.1897 122.178C31.7766 123.39 30.3539 124 29 124C27.6461 124 26.2234 123.39 24.8103 122.178C23.3982 120.968 22.0522 119.202 20.8837 117.027C18.6746 112.915 17.1722 107.476 17.0139 101.962C20.3851 101.71 23.4331 100.251 25.659 98.8455C26.8921 98.0667 27.897 97.2887 28.5951 96.7043C28.744 96.5795 28.8793 96.4634 29 96.3578Z" fill="white" stroke="#FF0000" stroke-width="2"/>
<path d="M26 113.778L33.7781 106L35.8995 108.121L28.1213 115.899L26 113.778Z" fill="#FF0000"/>
<path d="M25.1213 108.707L28.6568 112.243L26.5355 114.364L23 110.828L25.1213 108.707Z" fill="#FF0000"/>
<rect x="185" y="95" width="8" height="30" rx="2" fill="#FF0000"/>
<rect x="204" y="106" width="8" height="30" rx="2" transform="rotate(90 204 106)" fill="#FF0000"/>
<rect x="181.222" y="123.435" width="8" height="30" rx="2" transform="rotate(-135 181.222 123.435)" fill="#FF0000"/>
<rect x="202.435" y="117.778" width="8" height="30" rx="2" transform="rotate(135 202.435 117.778)" fill="#FF0000"/>
<circle cx="189" cy="110" r="12" fill="#FF0000"/>
<circle cx="189" cy="110" r="11" fill="white"/>
<circle cx="189" cy="110" r="5" fill="#000F40" stroke="#FF0000" stroke-width="2"/>
<path fill-rule="evenodd" clip-rule="evenodd" d="M37.8387 37.8124C37.3755 38.1132 37.2438 38.7325 37.5446 39.1957C37.8454 39.6589 38.4648 39.7905 38.928 39.4897L43.96 36.2219C44.4232 35.9211 44.5548 35.3017 44.254 34.8386C43.9532 34.3754 43.3339 34.2437 42.8707 34.5445L37.8387 37.8124ZM61.8125 65.9599C62.1133 66.4231 62.7326 66.5547 63.1958 66.2539C63.659 65.9531 63.7906 65.3338 63.4898 64.8706L60.222 59.8386C59.9212 59.3754 59.3019 59.2438 58.8387 59.5446C58.3755 59.8454 58.2438 60.4647 58.5446 60.9279L61.8125 65.9599Z" fill="#FF8080"/>
<path fill-rule="evenodd" clip-rule="evenodd" d="M199.966 18.8117C199.432 18.9547 199.116 19.503 199.259 20.0365C199.402 20.5699 199.95 20.8865 200.484 20.7436L206.279 19.1907C206.813 19.0477 207.129 18.4994 206.986 17.9659C206.843 17.4324 206.295 17.1159 205.761 17.2588L199.966 18.8117ZM175.035 41.9342C174.892 41.4007 175.209 40.8524 175.742 40.7094L181.538 39.1565C182.071 39.0136 182.62 39.3301 182.763 39.8636C182.906 40.3971 182.589 40.9454 182.056 41.0884L176.26 42.6413C175.727 42.7842 175.178 42.4676 175.035 41.9342ZM30.2588 139.036C30.1159 138.503 30.4325 137.955 30.9659 137.812L36.7615 136.259C37.2949 136.116 37.8433 136.432 37.9862 136.966C38.1292 137.499 37.8126 138.048 37.2791 138.191L31.4836 139.744C30.9501 139.886 30.4018 139.57 30.2588 139.036ZM148.966 66.2588C149.499 66.1158 150.048 66.4324 150.191 66.9659L151.744 72.7614C151.886 73.2949 151.57 73.8433 151.036 73.9862C150.503 74.1291 149.955 73.8126 149.812 73.2791L148.259 67.4835C148.116 66.9501 148.432 66.4017 148.966 66.2588ZM21.1907 199.966C21.0477 199.432 20.4994 199.116 19.9659 199.259C19.4324 199.402 19.1159 199.95 19.2588 200.484L20.8117 206.279C20.9547 206.813 21.503 207.129 22.0365 206.986C22.5699 206.843 22.8865 206.295 22.7436 205.761L21.1907 199.966Z" fill="#FF8080"/>
<path fill-rule="evenodd" clip-rule="evenodd" d="M146.309 184.658C146.138 185.183 146.426 185.747 146.951 185.918C147.476 186.088 148.04 185.801 148.211 185.276L150.065 179.569C150.236 179.044 149.948 178.48 149.423 178.309C148.898 178.138 148.334 178.426 148.163 178.951L146.309 184.658ZM185.845 177.276C185.674 177.802 185.11 178.089 184.584 177.918L178.878 176.064C178.353 175.894 178.065 175.33 178.236 174.804C178.407 174.279 178.971 173.992 179.496 174.162L185.203 176.016C185.728 176.187 186.015 176.751 185.845 177.276ZM39.9175 77.4233C39.7468 77.9486 39.1827 78.236 38.6574 78.0654L32.9511 76.2113C32.4258 76.0406 32.1384 75.4764 32.309 74.9512C32.4797 74.4259 33.0439 74.1385 33.5691 74.3091L39.2755 76.1632C39.8007 76.3339 40.0882 76.8981 39.9175 77.4233Z" fill="#FFCCCC"/>
<rect width="22" height="28" transform="matrix(-0.866025 0.5 0.5 0.866025 112.053 11)" fill="#FF0000"/>
<rect x="98" y="14" width="22" height="28" fill="white"/>
<path d="M115 22C115 22.5908 114.572 23.3212 113.454 23.9602C112.364 24.583 110.791 25 109 25C107.209 25 105.636 24.583 104.546 23.9602C103.428 23.3212 103 22.5908 103 22C103 21.4092 103.428 20.6788 104.546 20.0398C105.636 19.417 107.209 19 109 19C110.791 19 112.364 19.417 113.454 20.0398C114.572 20.6788 115 21.4092 115 22Z" stroke="#000F40" stroke-width="2"/>
<path d="M115 34C115 34.5908 114.572 35.3212 113.454 35.9602C112.364 36.583 110.791 37 109 37C107.209 37 105.636 36.583 104.546 35.9602C103.428 35.3212 103 34.5908 103 34C103 33.4092 103.428 32.6788 104.546 32.0398C105.636 31.417 107.209 31 109 31C110.791 31 112.364 31.417 113.454 32.0398C114.572 32.6788 115 33.4092 115 34Z" stroke="#000F40" stroke-width="2"/>
<path d="M109 25V32" stroke="#000F40" stroke-width="2"/>
<path d="M100 28L118 28" stroke="#000F40" stroke-width="2"/>
</g>
<defs>
<clipPath id="clip0">
<path d="M0 0H220V220H0V0Z" fill="white"/>
</clipPath>
</defs>
</svg>
