<svg width="220" height="220" viewBox="0 0 220 220" fill="none" xmlns="http://www.w3.org/2000/svg">
<rect x="11" y="11" width="198" height="188" stroke="#333F66" stroke-width="2"/>
<rect x="21" y="21" width="198" height="188" stroke="#333F66" stroke-width="2"/>
<rect x="31" y="31" width="188" height="188" stroke="#333F66" stroke-width="2"/>
<rect x="1" y="21" width="198" height="188" stroke="#333F66" stroke-width="2"/>
<rect x="1" y="11" width="168" height="158" stroke="#333F66" stroke-width="2"/>
<rect x="1" y="1" width="157" height="158" stroke="#333F66" stroke-width="2"/>
<rect x="10" y="19" width="92" height="60" fill="#B2B7C5"/>
<rect x="14" y="23" width="84" height="52" fill="white"/>
<mask id="mask0" mask-type="alpha" maskUnits="userSpaceOnUse" x="14" y="23" width="84" height="52">
<rect x="14" y="23" width="84" height="52" fill="white"/>
</mask>
<g mask="url(#mask0)">
<rect x="22" y="31" width="12" height="2" rx="1" fill="#FF1919"/>
<rect x="22" y="35" width="32" height="2" rx="1" fill="#192753"/>
<rect x="22" y="39" width="24" height="2" rx="1" fill="#192753"/>
<path d="M98 75L14 63V75H98Z" fill="#FF8080"/>
<path d="M98 75L14 67V75H98Z" fill="#192753"/>
<path d="M14 75L98 53V75H14Z" fill="#FFCCCC"/>
<path d="M14 75L98 61V75H14Z" fill="#FF8080"/>
<path d="M14 75L98 68V75H14Z" fill="#192753"/>
</g>
<path d="M73 47H85V61L79 56L73 61V47Z" fill="#FF1919"/>
<circle cx="79" cy="42" r="11" fill="#192753"/>
<circle cx="79" cy="42" r="6" fill="white"/>
<path d="M28.3231 47C27.7293 49.6034 26.9697 52.2253 26.0761 54.7397C25.9171 55.187 24.0385 59.9314 22.8787 58.4202C22.1455 57.4648 21.3217 55.5745 22.9109 55.0699C23.9237 54.7483 25.0712 54.8521 26.1163 54.7638C26.7911 54.7068 27.8804 54.7417 28.3553 54.1356C29.5549 52.6046 30.2035 50.5312 31.2305 48.8685C31.4999 48.4322 31.2585 49.8959 31.2144 50.4067C31.064 52.1484 30.9629 53.8949 30.707 55.6256C30.5815 56.474 30.4297 57.3256 30.2399 58.1625C30.1561 58.5318 29.9676 58.8624 30.256 58.2753C30.9334 56.8961 31.5859 55.4876 32.4305 54.2001C32.6675 53.8387 34.3674 51.0988 35.1204 51.3812C35.5896 51.5572 35.484 53.8155 35.4909 53.9826C35.5374 55.1118 35.422 56.3768 35.652 57.494C35.753 57.9849 36.4097 56.8264 36.707 56.4229C38.0698 54.5734 39.532 52.7996 41.0399 51.0671C41.377 50.6799 41.7087 50.2873 42.0628 49.9155C42.2908 49.676 42.7135 49.1111 42.9004 49.3839C43.1588 49.7611 42.9521 50.7696 42.9648 51.2202C42.9841 51.9056 43.4205 50.808 43.448 50.753C43.9952 49.6587 44.4363 48.5142 44.9782 47.4188C45.0083 47.3581 45.0238 47.2413 45.091 47.2497C45.4009 47.2884 45.0584 47.8741 45.0185 48.1839C44.708 50.595 44.3476 52.9981 44.0923 55.4162C44.0741 55.5891 43.9611 56.8544 43.9071 57.2202C43.9012 57.2603 43.8964 57.6367 43.7218 57.6551C43.2286 57.707 42.5621 56.6732 42.3849 56.3746C41.8676 55.5027 41.3654 54.3034 41.3057 53.2819C41.1705 50.9659 44.034 50.3955 45.7675 50.0926C50.9869 49.1809 49.7279 46.5183 55 46.5" stroke="#192753" stroke-linecap="round" stroke-linejoin="round"/>
<rect x="118" y="19" width="92" height="113" fill="#B2B7C5"/>
<rect x="122" y="23" width="84" height="105" fill="white"/>
<path d="M140.983 55.678L152.937 61L144.954 78.9304L141.828 69.8656L133 73.6083L140.983 55.678Z" fill="#192753"/>
<path d="M150.992 60.9998L162.945 55.6777L170.928 73.608L162.1 69.8654L158.975 78.9301L150.992 60.9998Z" fill="#192753"/>
<path fill-rule="evenodd" clip-rule="evenodd" d="M152.023 31C150.307 31 148.797 31.8809 147.92 33.2151C146.9 33.5105 145.925 33.9133 145.01 34.4103C144.636 34.3194 144.246 34.2712 143.845 34.2712C141.135 34.2712 138.938 36.468 138.938 39.178C138.938 39.5794 138.986 39.9695 139.077 40.343C138.58 41.2586 138.177 42.2329 137.882 43.2527C136.548 44.1297 135.667 45.64 135.667 47.356C135.667 49.072 136.548 50.5822 137.882 51.4592C138.177 52.4791 138.58 53.4534 139.077 54.369C138.986 54.7424 138.938 55.1326 138.938 55.534C138.938 58.2439 141.135 60.4408 143.845 60.4408C144.246 60.4408 144.636 60.3926 145.01 60.3016C145.925 60.7987 146.9 61.2015 147.92 61.4969C148.797 62.8311 150.307 63.712 152.023 63.712C153.739 63.712 155.249 62.8311 156.126 61.4969C157.146 61.2015 158.12 60.7987 159.036 60.3016C159.409 60.3926 159.799 60.4408 160.201 60.4408C162.911 60.4408 165.108 58.2439 165.108 55.534C165.108 55.1326 165.059 54.7424 164.968 54.369C165.466 53.4534 165.868 52.4791 166.164 51.4592C167.498 50.5822 168.379 49.072 168.379 47.356C168.379 45.64 167.498 44.1298 166.164 43.2527C165.868 42.2329 165.466 41.2586 164.968 40.3429C165.059 39.9695 165.108 39.5794 165.108 39.178C165.108 36.468 162.911 34.2712 160.201 34.2712C159.799 34.2712 159.409 34.3194 159.036 34.4103C158.12 33.9133 157.146 33.5105 156.126 33.2151C155.249 31.8809 153.739 31 152.023 31Z" fill="#FF1919"/>
<circle cx="152.023" cy="47.356" r="8.17799" fill="white"/>
<rect x="146" y="87" width="12" height="2" rx="1" fill="#FF1919"/>
<rect x="136" y="91" width="32" height="2" rx="1" fill="#192753"/>
<rect x="140" y="95" width="24" height="2" rx="1" fill="#192753"/>
<rect x="198" y="23" width="8" height="105" fill="#192753"/>
<rect x="190" y="23" width="8" height="105" fill="#FF8080"/>
<rect x="182" y="23" width="8" height="105" fill="#FFCCCC"/>
<path d="M130 110.876C131.041 108.871 133.261 107.441 135.267 106.543C138.315 105.18 140.659 106.93 142.395 109.451C143.407 110.921 145.311 113.852 143.949 115.66C143.07 116.827 140.962 117.826 139.689 116.739C137.729 115.066 143.096 111.942 143.965 111.504C146.117 110.42 148.525 109.659 150.94 109.523C152.857 109.415 155.733 109.626 157.31 110.916C159.292 112.538 156.601 115.622 155.208 116.498C154.668 116.838 153.642 117.39 152.977 116.997C151.552 116.155 152.764 113.644 153.364 112.745C154.499 111.042 156.215 110.012 158.108 109.314C160.364 108.481 163.026 107.826 165.453 108.009C169.785 108.336 166.403 112.563 164.486 113.695C163.174 114.47 160.182 115.223 160.862 112.64C161.683 109.522 164.914 106.61 167.611 105.029C167.925 104.845 167.135 105.588 166.846 105.81C163.959 108.035 160.521 109.37 157.198 110.788C154.49 111.942 151.772 113.057 149.152 114.404C148.847 114.56 147.984 115.04 147.589 115.273C147.496 115.329 147.316 115.342 147.316 115.451C147.316 115.705 147.771 115.22 148.008 115.129C150.16 114.301 152.51 113.786 154.741 113.268C161.05 111.803 167.458 110.613 173.925 110.151" stroke="#192753" stroke-linecap="round" stroke-linejoin="round"/>
<rect x="118" y="148" width="80" height="54" fill="#E5E7EC"/>
<rect x="122" y="152" width="72" height="46" fill="white"/>
<mask id="mask1" mask-type="alpha" maskUnits="userSpaceOnUse" x="122" y="152" width="72" height="46">
<rect x="122" y="152" width="72" height="46" fill="white"/>
</mask>
<g mask="url(#mask1)">
<circle cx="181.5" cy="185.5" r="39.5" fill="#FFCCCC"/>
<circle cx="189.5" cy="193.5" r="21.5" fill="#FF8080"/>
<circle cx="193" cy="197" r="12" fill="#192753"/>
</g>
<rect x="130" y="180" width="19" height="2" rx="1" fill="#FF1919"/>
<rect x="130" y="184" width="24" height="2" rx="1" fill="#192753"/>
<rect x="130" y="188" width="22" height="2" rx="1" fill="#192753"/>
<path d="M130 152H140V174L135 170.765L130 174V152Z" fill="#FF1919"/>
<path d="M154.443 171.176C156.34 169.532 157.9 167.655 159.347 165.592C160.975 163.27 162.647 160.795 163.573 158.083C163.578 158.07 164.517 154.403 163.987 156.829C163.463 159.235 162.947 161.655 162.771 164.117C162.554 167.144 162.659 170.189 162.464 173.221C162.445 173.508 162.534 174.093 162.175 173.753C161 172.641 159.224 172.025 157.792 171.353C156.621 170.804 155.435 170.288 154.267 169.733C153.854 169.536 153.949 169.526 154.355 169.416C155.871 169.004 157.422 168.734 158.945 168.352C160.396 167.989 162.018 167.624 163.122 166.529C163.562 166.093 163.747 165.064 163.686 166.257C163.652 166.934 163.316 173.393 163.749 173.329C164.231 173.258 165.014 171.546 165.166 171.29C166.13 169.673 167.051 168.031 168.076 166.453C168.213 166.243 168.682 165.254 168.641 166.086C168.551 167.889 168.298 169.68 168.233 171.486C168.207 172.213 168.069 173.217 168.277 173.937C168.328 174.115 168.432 173.864 168.459 173.823C168.746 173.374 169 172.906 169.274 172.449C170.272 170.782 171.311 169.132 172.435 167.548C172.845 166.97 173.769 165.407 173.996 166.896C174.175 168.069 174.192 169.263 174.31 170.442C174.4 171.35 174.549 170.626 174.711 170.201C175.124 169.119 175.534 168.027 176.04 166.985C176.578 165.88 176.376 166.869 176.266 167.491C176.118 168.333 175.946 169.168 175.746 169.999C175.663 170.34 176.706 169.308 176.724 169.296C180.674 166.53 185.831 166.125 190 163.769" stroke="#192753" stroke-linecap="round" stroke-linejoin="round"/>
<rect x="22" y="95" width="80" height="97" fill="#E5E7EC"/>
<rect x="26" y="99" width="72" height="89" fill="white"/>
<mask id="mask2" mask-type="alpha" maskUnits="userSpaceOnUse" x="26" y="99" width="72" height="89">
<rect x="26" y="99" width="72" height="89" fill="white"/>
</mask>
<g mask="url(#mask2)">
<rect x="34" y="170" width="15" height="2" rx="1" fill="#FF1919"/>
<rect x="34" y="174" width="19" height="2" rx="1" fill="#192753"/>
<rect x="34" y="178" width="10" height="2" rx="1" fill="#192753"/>
<path d="M103 117.704C103 137.392 101.342 105.015 78.9746 105.015C56.607 105.015 22 125.392 22 117.704C22 79.0542 40.1325 82.0542 62.5 82.0542C84.8675 82.0542 102 84.0542 103 117.704Z" fill="#192753"/>
<path d="M103 122.704C103 142.392 101.342 110.015 78.9746 110.015C56.6071 110.015 22 124.392 22 116.704C22 75.0001 14.5 108.5 83 103.5C105.368 103.5 104.5 120 103 122.704Z" fill="#FF8080"/>
<path d="M103 127.703C103 147.392 101.342 115.015 78.9746 115.015C56.6071 115.015 22 123.392 22 117.703C22 75.9999 14.5 113.5 83 108.5C105.368 108.5 104.5 125 103 127.703Z" fill="#FFCCCC"/>
</g>
<path d="M58.2117 129L65.9391 131.071L59.7274 154.253L56.5293 150.734L52 152.182L58.2117 129Z" fill="#192753"/>
<path d="M58.9695 131.071L66.6969 129L72.9086 152.182L68.3794 150.734L65.1812 154.253L58.9695 131.071Z" fill="#192753"/>
<circle cx="62" cy="112" r="2" fill="#FF1919"/>
<circle cx="58" cy="113" r="2" fill="#FF1919"/>
<circle cx="52" cy="119" r="2" fill="#FF1919"/>
<circle cx="52" cy="127" r="2" fill="#FF1919"/>
<circle cx="72" cy="119" r="2" fill="#FF1919"/>
<circle cx="72" cy="127" r="2" fill="#FF1919"/>
<circle cx="66" cy="113" r="2" fill="#FF1919"/>
<circle cx="58" cy="133" r="2" fill="#FF1919"/>
<circle cx="66" cy="133" r="2" fill="#FF1919"/>
<circle cx="62" cy="134" r="2" fill="#FF1919"/>
<circle cx="51" cy="123" r="2" fill="#FF1919"/>
<circle cx="73" cy="123" r="2" fill="#FF1919"/>
<circle cx="62" cy="123" r="11" fill="#FF1919"/>
<circle cx="62" cy="123" r="7" fill="white"/>
<path d="M62 170.286C65.7967 170.286 69.4363 169.894 73.2031 169.416C74.2865 169.278 77.55 169.038 76.4578 169.038C75.2284 169.038 74.0003 169.065 72.7722 169.123C70.9796 169.207 69.1486 169.266 67.3784 169.585C67.1352 169.629 66.5238 169.715 66.3243 169.94C66.2348 170.04 66.355 170.35 66.3704 170.441C66.5358 171.411 66.5612 172.411 66.5474 173.392C66.5199 175.349 66.2791 177.314 65.9472 179.242C65.7702 180.27 65.9592 180.186 66.6628 179.388C67.8931 177.993 69.0983 176.595 70.41 175.273C71.2734 174.402 72.2274 173.586 73.0184 172.645C73.2541 172.364 72.9719 173.378 72.9107 173.739C72.692 175.029 72.3946 176.302 72.1412 177.585C72.0823 177.883 71.8105 178.722 72.0027 178.486C72.5627 177.801 72.9648 176.964 73.5262 176.267C74.8738 174.593 73.848 176.679 74.6342 176.467C75.3136 176.285 75.2111 176.467 74.9882 177.223C74.9137 177.475 74.8285 177.698 74.742 177.947C74.6854 178.11 74.4161 178.44 74.5881 178.44C74.9102 178.44 74.9772 177.926 75.1728 177.67C76.0156 176.565 76.5179 175.957 77.4812 174.849C79.1615 172.916 80.8457 170.843 82.7134 169.084C83.2678 168.562 82.5795 170.608 82.4056 171.35C81.9587 173.257 81.5067 175.168 81.0975 177.084C81.0845 177.145 81.0217 178.123 80.8051 178.132C80.4252 178.147 80.5982 177.496 80.7282 177.377C81.3371 176.817 82.5902 176.391 83.2366 176.174C85.0069 175.582 88.0762 174.787 89.7922 174.34" stroke="#192753" stroke-linecap="round" stroke-linejoin="round"/>
</svg>
